<?xml version="1.0" encoding="utf-8"?>
<!-- Generator: Adobe Illustrator 27.5.0, SVG Export Plug-In . SVG Version: 6.00 Build 0)  -->
<svg version="1.1" id="Layer_1" xmlns="http://www.w3.org/2000/svg" xmlns:xlink="http://www.w3.org/1999/xlink" x="0px" y="0px"
	 viewBox="0 0 3840 2160" style="enable-background:new 0 0 3840 2160;" xml:space="preserve">
<g>
	<defs>
		<rect id="SVGID_1_" width="3840" height="2160"/>
	</defs>
	<clipPath id="SVGID_00000136383078172746418620000014439723539865665165_">
		<use xlink:href="#SVGID_1_"  style="overflow:visible;"/>
	</clipPath>
	<g style="clip-path:url(#SVGID_00000136383078172746418620000014439723539865665165_);">
		<rect style="fill:#FFFBF9;" width="3840" height="2160"/>
		<g>
			<defs>
				
					<rect id="SVGID_00000138544882294911019830000016670358681207625353_" x="3082.991" y="1432.451" transform="matrix(0.9992 -0.0399 0.0399 0.9992 -85.5766 182.1075)" width="2870.337" height="1603.798"/>
			</defs>
			<clipPath id="SVGID_00000072981415566812996700000004452871678649077182_">
				<use xlink:href="#SVGID_00000138544882294911019830000016670358681207625353_"  style="overflow:visible;"/>
			</clipPath>
			<g style="clip-path:url(#SVGID_00000072981415566812996700000004452871678649077182_);">
				<g>
					<defs>
						
							<rect id="SVGID_00000163035484650195776200000007785757537936646811_" x="3082.991" y="1432.451" transform="matrix(0.9992 -0.0399 0.0399 0.9992 -85.5766 182.1075)" width="2870.337" height="1603.798"/>
					</defs>
					<clipPath id="SVGID_00000075146291468110195840000003694718768897569189_">
						<use xlink:href="#SVGID_00000163035484650195776200000007785757537936646811_"  style="overflow:visible;"/>
					</clipPath>
					<g style="clip-path:url(#SVGID_00000075146291468110195840000003694718768897569189_);">
						<g>
							<defs>
								
									<rect id="SVGID_00000111870877764187587120000011074268055316883350_" x="3082.991" y="1432.451" transform="matrix(0.9992 -0.0399 0.0399 0.9992 -85.5766 182.1075)" width="2870.337" height="1603.798"/>
							</defs>
							<clipPath id="SVGID_00000019643644309143601600000012476703031437369244_">
								<use xlink:href="#SVGID_00000111870877764187587120000011074268055316883350_"  style="overflow:visible;"/>
							</clipPath>
							<g style="clip-path:url(#SVGID_00000019643644309143601600000012476703031437369244_);">
								<path style="fill:#F4A25D;" d="M3112.495,2335.439c12.08-205.142,24.17-410.282,36.07-615.417
									c3.302-56.174,9.594-118.971,52.528-155.497c34.239-29.102,82.667-33.331,127.531-36.08
									c545.295-34.213,1090.78-68.434,1636.073-102.839c211.288-13.221,423.722-26.488,634.182-2.953
									c77.454,8.574,157.26,23.365,220.673,68.458c15.359,10.863,29.258,23.506,41.682,37.546
									c8.29,15.927,17.695,31.044,27.842,45.557c1.467,7.975,3.881,15.721,6.295,23.467c5.927,42.99,13.756,85.713,23.099,127.993
									c0.008,0.191,0.023,0.574,0.222,0.757c0.084,2.1,0.351,4.002,0.435,6.103c-0.344,0.97-0.489,2.124-0.443,3.269l1.724,43.159
									c-0.489,2.123-1.169,4.255-1.857,6.195c1.176,10.281,2.161,20.571,3.344,31.043l0.313,7.83
									c0.053,1.337,0.298,2.665,0.917,3.788c23.573,235.66,29.998,473.152,19.358,709.791
									c-5.135,110.953-17.057,229.253-87.494,314.883c-102.932,124.808-287.42,133.518-449.16,132.132
									c-540.721-4.413-1081.631-8.818-1622.342-13.231c-110.828-0.938-222.802-2.009-330.103-29.469
									c-107.292-27.47-210.988-84.727-272.634-176.56C3098.163,2642.614,3103.844,2483.063,3112.495,2335.439z"/>
								<path style="fill:#F4A25D;" d="M3107.717,2335.63c8.534-145.515,17.076-290.838,25.621-436.353
									c3.956-68.634,6.368-137.587,12.431-206.112c4.226-47.604,14.186-100.027,52.874-132.558
									c45.726-38.55,113.181-35.889,169.294-39.469c73.291-4.649,146.771-9.305,220.069-13.763
									c145.819-9.076,291.44-18.335,437.269-27.412c291.441-18.336,583.081-36.679,874.531-55.015
									c142.955-8.962,285.859-19.26,429.145-20.01c71.547-0.371,143.384,1.732,214.802,7.678
									c62.964,5.136,127.13,11.562,187.786,30.753c51.748,16.486,112.22,45.44,140.016,94.633
									c7.212,12.909,19.201,25.628,22.822,39.637c4.072,15.713,6.967,30.708,9.526,46.864
									c5.37,33.831,13.971,67.151,19.142,100.799c2.093,14.071,0.999,29.798,1.571,44.12c0.206,5.156-0.215,8.999-0.589,13.987
									c-1.01,13.047,1.458,26.91,2.74,39.865c6.628,70.123,13.263,140.437,17.224,210.858
									c8.212,143.315,10.127,287.074,5.914,430.694c-3.577,116.435-3.013,245.516-62.953,349.671
									c-53.321,92.602-149.577,140.241-251.362,159.609c-116.213,22.246-236.466,15.19-353.985,14.33
									c-292.08-2.295-584.17-4.779-876.244-7.073c-147-1.204-294.001-2.408-441.002-3.622
									c-71.967-0.568-143.926-0.937-215.712-1.712c-67.379-0.751-135.003-2.634-201.933-11.439
									c-115.805-15.27-232.918-54.007-319.053-136.065c-85.73-81.693-117.466-195.948-123.405-311.052
									C3101.262,2456.771,3104.2,2396.213,3107.717,2335.63c0.326-6.133,9.882-6.515,9.546-0.381
									c-6.931,118.482-13.408,243.827,30.507,356.454c43.274,111.121,138.141,186.715,247.868,227.278
									c123.513,45.557,257.498,46.52,387.465,47.644c141.255,1.243,282.703,2.289,423.958,3.532
									c283.663,2.25,567.133,4.699,850.795,6.949c135.322,1.09,270.752,4.868,405.946,2.72
									c103.45-1.65,214.474-10.098,306.32-62.736c46.951-26.926,85.597-65.388,111.444-112.898
									c27.459-50.256,40.507-106.822,47.816-163.349c8.173-63.637,9.607-128.336,11.254-192.482
									c1.839-68.928,2.333-137.996,1.299-207.004c-1.111-70.917-3.75-141.772-7.917-212.567
									c-4.076-68.503-11.2-136.693-16.797-204.944c-0.794-10.298-1.58-20.403-2.756-30.684
									c-0.878-7.616,0.979-13.811,0.682-21.258c-0.557-13.941-0.548-28.096-1.105-42.035c-0.786-14.889-6.195-30.547-9.075-45.16
									c-3.14-16.324-6.096-32.847-8.86-49.377c-2.78-16.911-4.605-33.862-9.663-50.3c-5.279-17.195-17.42-33.733-26.841-49.232
									c-15.961-25.949-46.396-45.39-72.597-59.454c-26.79-14.423-55.705-24.553-85.27-31.788
									c-63.782-16.005-130.583-21.37-196.193-25.636c-137.737-8.843-276.086-4.274-413.733,3.52
									c-282.176,15.67-564.199,35.16-846.102,52.923c-283.052,17.809-566.103,35.618-849.155,53.428
									c-33.206,2.091-66.459,3.229-99.422,6.649c-29.341,3.085-59.718,9.08-84.486,26.136
									c-47.666,33.081-55.265,96.504-58.692,149.813c-9.143,139.801-16.379,279.718-24.573,419.481
									c-3.979,68.06-7.959,136.12-11.938,204.179C3116.937,2341.383,3107.381,2341.765,3107.717,2335.63z"/>
							</g>
						</g>
					</g>
				</g>
			</g>
		</g>
		<g>
			<defs>
				
					<rect id="SVGID_00000103226182163265437330000013514696565017648788_" x="27.893" y="-117.44" transform="matrix(0.9149 -0.4037 0.4037 0.9149 -23.3012 161.6302)" width="687.489" height="507.023"/>
			</defs>
			<clipPath id="SVGID_00000095325615755594090780000005646917536929968298_">
				<use xlink:href="#SVGID_00000103226182163265437330000013514696565017648788_"  style="overflow:visible;"/>
			</clipPath>
			<g style="clip-path:url(#SVGID_00000095325615755594090780000005646917536929968298_);">
				<g>
					<defs>
						
							<rect id="SVGID_00000168800024645321286620000011765888002469201539_" x="27.893" y="-117.44" transform="matrix(0.9149 -0.4037 0.4037 0.9149 -23.3012 161.6302)" width="687.489" height="507.023"/>
					</defs>
					<clipPath id="SVGID_00000076568887322087685430000018026012764661444019_">
						<use xlink:href="#SVGID_00000168800024645321286620000011765888002469201539_"  style="overflow:visible;"/>
					</clipPath>
					<g style="clip-path:url(#SVGID_00000076568887322087685430000018026012764661444019_);">
						<g>
							<defs>
								
									<rect id="SVGID_00000173159562283117642220000005459526139187539387_" x="27.893" y="-117.44" transform="matrix(0.9149 -0.4037 0.4037 0.9149 -23.3012 161.6302)" width="687.489" height="507.023"/>
							</defs>
							<clipPath id="SVGID_00000070822452544900034290000006838356091162385325_">
								<use xlink:href="#SVGID_00000173159562283117642220000005459526139187539387_"  style="overflow:visible;"/>
							</clipPath>
							<g style="clip-path:url(#SVGID_00000070822452544900034290000006838356091162385325_);">
								<path style="fill:#D84F97;" d="M632.11-101.44c-7.821-5.895-18.199-6.725-27.557-5.145
									c-16.683,2.817-30.17,14.629-40.968,26.909c-10.781,12.262-19.232,26.45-27.232,40.618
									c-9.393,16.634-17.116,34.183-23.821,52.054c-13.653,36.392-23.042,74.398-31.279,112.333
									c-8.484,39.075-15.187,78.518-21.122,118.053c-0.796,5.301-1.573,10.603-2.342,15.908
									c0.119-5.643,0.288-11.286,0.506-16.929c1.49-38.676,5.815-77.105,8.502-115.697c5.112-73.437,4.479-148.846-19.035-219.4
									c-4.718-14.158-11.257-28.641-21.839-39.417c-11.591-11.802-28.549-19.317-44.713-12.664
									c-15.157,6.239-24.085,22.33-30.282,36.56c-6.05,13.892-9.909,28.766-12.26,43.711c-4.802,30.539-2.597,62.062,2.398,92.428
									c4.988,30.322,13.165,60.028,22.07,89.403c14.55,47.997,30.235,95.674,44.663,143.714
									c-2.101-4.731-4.194-9.466-6.275-14.204c-15.571-35.442-29.942-71.392-45.444-106.861
									c-15.028-34.388-31.524-68.188-51.946-99.734c-9.954-15.376-20.979-30.068-33.218-43.701
									c-5.604-6.241-11.62-12.052-17.519-18.004c-4.721-4.764-9.739-9.256-15.092-13.298c-10.749-8.117-24.23-15.328-38.05-15.105
									c-7.855,0.126-15.652,2.162-22.012,6.965c-5.542,4.186-9.542,10.215-12.222,16.544c-5.341,12.618-4.917,27.354-3.357,40.688
									c1.708,14.594,5.377,28.927,9.63,42.96c21.685,71.567,69.23,132.213,121.692,184.083
									c20.755,20.521,42.507,39.924,64.7,58.824c-3.489-2.272-6.966-4.56-10.425-6.877c-16.157-10.828-31.93-22.213-47.121-34.362
									c-14.612-11.684-28.792-23.898-43.019-36.043c-28.169-24.048-56.678-48.023-88.645-66.936
									c-18.955-11.215-39.863-19.501-61.097-25.234c-11.939-3.223-24.172-5.731-36.566-6.102
									c-11.119-0.332-22.876,0.834-32.829,6.19c-10.196,5.488-17.447,14.762-20.275,26.014
									c-4.321,17.193,0.987,33.088,10.277,47.628c8.505,13.31,20.242,24.314,31.779,34.946
									c13.339,12.292,27.724,23.321,42.895,33.254c30.917,20.244,64.709,35.6,98.877,49.441
									c37.771,15.301,77.071,26.049,117.066,33.154c14.795,3.81,29.733,7.044,44.778,9.634c7.388,1.271,14.834,2.127,22.231,3.316
									c3.615,0.582,7.209,1.297,10.811,1.955c10.187,1.862,20.445,3.561,30.793,4.192c4.858,0.296,10.46,0.488,15.886-0.13
									c2.26,0.489,4.534,0.91,6.809,1.306c1.887,0.328,3.796-0.172,5.401-1.18c1.425,0.162,2.927-0.025,4.449-0.611
									c2.354-0.908,3.986-2.942,4.717-5.27c0.616-0.469,1.189-1.015,1.7-1.635c10.204-12.391,17.174-27.122,23.297-41.854
									c2.975-7.157,5.772-14.385,8.753-21.538c3.259-7.818,7.249-15.331,11.048-22.897c15.785-31.447,32.083-62.653,46.667-94.686
									c0.971-2.132,1.93-4.271,2.883-6.411c18.597-33.997,36.364-68.484,51.694-104.095c8.646-20.086,16.945-40.548,23.224-61.526
									c6.113-20.427,11.144-41.586,12.571-62.913C648.499-66.861,647.717-89.673,632.11-101.44z M421.724-107.416
									C421.469-108.49,422.816-104.069,421.724-107.416L421.724-107.416z M404.644-127.075c0.186,0.089,0.315,0.148,0.306,0.134
									c0.83,0.475,1.637,0.991,2.429,1.527c-0.771-0.215-1.556-0.391-2.354-0.529C404.898-126.32,404.77-126.697,404.644-127.075z
									"/>
							</g>
						</g>
					</g>
				</g>
			</g>
		</g>
		<g>
			<defs>
				<polygon id="SVGID_00000126312747503185181220000015592553672267242153_" points="1581.48,1451.17 2137.59,1845.05 
					1638.2,2550.11 1082.1,2156.23 				"/>
			</defs>
			<clipPath id="SVGID_00000151534880954743052330000010218707298576247720_">
				<use xlink:href="#SVGID_00000126312747503185181220000015592553672267242153_"  style="overflow:visible;"/>
			</clipPath>
			<g style="clip-path:url(#SVGID_00000151534880954743052330000010218707298576247720_);">
				<g>
					<defs>
						<polygon id="SVGID_00000097497344015559792330000013047104130522652058_" points="1581.48,1451.17 2137.59,1845.05 
							1638.2,2550.11 1082.1,2156.23 						"/>
					</defs>
					<clipPath id="SVGID_00000171721549427530500470000007935260189844913539_">
						<use xlink:href="#SVGID_00000097497344015559792330000013047104130522652058_"  style="overflow:visible;"/>
					</clipPath>
					<g style="clip-path:url(#SVGID_00000171721549427530500470000007935260189844913539_);">
						<g>
							<defs>
								<polygon id="SVGID_00000049182412694790622870000012250633696236992952_" points="1581.48,1451.17 2137.59,1845.05 
									1638.2,2550.11 1082.1,2156.23 								"/>
							</defs>
							<clipPath id="SVGID_00000067951065749902273920000008485728507318599075_">
								<use xlink:href="#SVGID_00000049182412694790622870000012250633696236992952_"  style="overflow:visible;"/>
							</clipPath>
							<g style="clip-path:url(#SVGID_00000067951065749902273920000008485728507318599075_);">
								<path style="fill:#5B6BCB;" d="M1916.27,1997.03c0,0,39.01,38.32,88.04,2.64c49.04-35.68,54.39-103.74,1.43-176.56
									c-52.96-72.83-77.02-84.39-118.92-130.93c-41.88-46.55-78.23-79.96-119.28-50.47c-41.05,29.5-32.3,48.28-27.02,68.59
									c5.28,20.3-0.14,37.29-16.55,22.12c-16.41-15.17-49.64-83.53-116.84-69.8c-67.2,13.75-99.27,65.32-88.47,109.24
									c10.8,43.92,52.16,68.8,41.91,82.55c-10.25,13.76-16.59-3.4-49.56-32.46c-32.98-29.05-64.25-66.4-119.22-45.87
									c-54.97,20.52-74.87,74.3-56.87,144c18,69.71,40.89,111.23,45.05,130.09c4.15,18.86,16.64,18.47-15.62,45.81
									c-32.27,27.32-113.48,84.46-129.61,98.13c-16.13,13.66-18.4,21.23-10.87,44.44s38.11,40.18,63.92,22.5
									c25.8-17.68,119.84-88.24,130.33-98.69c10.49-10.45,26.2-15.66,41.96,4.66c15.75,20.33,104.32,91.11,167.07,86.63
									c62.76-4.49,105.84-44.85,95.62-98.51c-10.22-53.66-51.76-66.79-59.11-101.76c-7.36-34.97,15.77-36.62,37.31-10.32
									c21.54,26.29,73.61,100.97,120.6,86.63c46.98-14.34,84.51-57.37,62.51-100.74c-21.99-43.37-59.42-63.17-47.06-83.21
									C1849.38,1925.71,1885.7,1980.06,1916.27,1997.03"/>
							</g>
						</g>
					</g>
				</g>
			</g>
		</g>
		<g>
			<defs>
				
					<rect id="SVGID_00000150804031784178881520000006018814698436551554_" x="909.759" y="-243.786" transform="matrix(0.8408 -0.5413 0.5413 0.8408 140.7131 750.6906)" width="874.201" height="759.714"/>
			</defs>
			<clipPath id="SVGID_00000096060908032704037510000014601758081311571615_">
				<use xlink:href="#SVGID_00000150804031784178881520000006018814698436551554_"  style="overflow:visible;"/>
			</clipPath>
			<g style="clip-path:url(#SVGID_00000096060908032704037510000014601758081311571615_);">
				<g>
					<defs>
						
							<rect id="SVGID_00000147936182177423419690000003514964724963433602_" x="909.759" y="-243.786" transform="matrix(0.8408 -0.5413 0.5413 0.8408 140.7131 750.6906)" width="874.201" height="759.714"/>
					</defs>
					<clipPath id="SVGID_00000074419864052071391690000004523849522386163360_">
						<use xlink:href="#SVGID_00000147936182177423419690000003514964724963433602_"  style="overflow:visible;"/>
					</clipPath>
					<g style="clip-path:url(#SVGID_00000074419864052071391690000004523849522386163360_);">
						<g>
							<defs>
								
									<rect id="SVGID_00000179621880187814334110000007902257421792603574_" x="909.759" y="-243.786" transform="matrix(0.8408 -0.5413 0.5413 0.8408 140.7131 750.6906)" width="874.201" height="759.714"/>
							</defs>
							<clipPath id="SVGID_00000121278982902858079240000001774346827581579923_">
								<use xlink:href="#SVGID_00000179621880187814334110000007902257421792603574_"  style="overflow:visible;"/>
							</clipPath>
							<g style="clip-path:url(#SVGID_00000121278982902858079240000001774346827581579923_);">
								<path style="fill:#F4A25D;" d="M1508.1,330.186c36.42,30.299,124.19,73.764,156.11,17.08
									c26.38-46.826-25.02-100.805-64.95-118.686c-31.19-13.966-86.84-20.215-104.9,16.711
									C1484.39,265.689,1494.36,306.287,1508.1,330.186"/>
								<path style="fill:#F4A25D;" d="M1258.45,198.009c95.52,81.623,147.5-65.423,53.77-80.979
									c-30.07-4.991-57.81-2.267-66.85,29.247c-5.96,20.806,0.27,46.651,18.38,57.69L1258.45,198.009"/>
								<path style="fill:#F4A25D;" d="M1449.53,2.654c124.08,76.62,169.67-123.246,49.98-116.868
									C1432.34-110.637,1428.55-48.531,1449.53,2.654"/>
								<path style="fill:#F4A25D;" d="M1232.72-130.968c40.17-10.991,76.97-32.161,66.8-79.897
									c-28.21-7.161-72.37-8.254-90.35,20.522c-11.36,18.19-9.05,61.419,16.66,61.226L1232.72-130.968"/>
								<path style="fill:#F4A25D;" d="M1229.54,419.877c28.52,49.49,133.18,52.833,84.76-18.288
									C1283.56,356.448,1209.25,354.078,1229.54,419.877"/>
								<path style="fill:#F4A25D;" d="M1703.42,82.845c10.98,38.577,38.81,52.545,79.67,46.848
									c32.05-4.473,43.58-15.265,33.6-46.923C1801.65,35.05,1680.62,28.004,1703.42,82.845"/>
								<path style="fill:#F4A25D;" d="M1031.85-26.857c16.57,8.004,57.86,33.499,70.94,8.821c9.51-17.934-8.72-31.315-20.67-39.338
									c-12.58-8.436-40.75-23.736-55.65-10.739c-9.93,8.651-7.31,34.598,6.99,38.464L1031.85-26.857"/>
								<path style="fill:#F4A25D;" d="M929.76,295.668c25.463,16.557,88.06,28.742,101.36-10.062
									c10.52-30.665-19.04-43.09-43.837-44.154C953.794,240.013,920.629,260.947,929.76,295.668"/>
								<path style="fill:#F4A25D;" d="M795.539,86.276c21.165,9.247,68.142,20.132,84.354-3.231
									c12.309-17.751,3.318-44.206-16.166-53.033C834.9,16.952,782.843,47.535,795.539,86.276"/>
							</g>
						</g>
					</g>
				</g>
			</g>
		</g>
		<g>
			<g>
				<g>
					<path style="fill:#8591F6;" d="M103.601,1767.019c14.125,15.688,23.887,34.806,28.311,55.444
						c9.139,42.334,4.835,86.464-12.31,126.237c-9.299,23.497-26.629,44.106-42.069,64.748c-10.3,13.797-40.612,12.676-53.189,0.104
						c-11.576-11.572-8.695-34.345,7.091-46.615c10.939-7.044,18.129-18.633,19.581-31.559c0.863-8.856,8.626-16.995,13.224-25.489
						c10.619-19.643,10.222-23.945-4.934-40.76c-10.3-11.433-21.488-22.091-31.443-33.809
						c-25.827-30.404-19.987-65.62,13.405-86.866c9.943-7.66,23.723-7.933,33.961-0.673
						C84.011,1753.584,92.654,1759.586,103.601,1767.019z"/>
					<path style="fill:#F19D42;" d="M348.783,1755.016c-2.881-6.174-7.152-10.994-6.901-15.521
						c-0.181-13.708,1.789-27.36,5.839-40.458c11.948-29.705,8.462-59.023,0.983-88.159c-5.272-21.081-12.458-41.637-21.471-61.411
						c-8.445-19.475-10.311-41.17-5.314-61.8c2.961-16.441,18.695-27.37,35.144-24.41c4.89,0.88,9.488,2.95,13.387,6.027
						c27.354,22.402,44.266,55.08,46.754,90.34c2.338,37.475,1.864,75.441-12.542,110.251
						c-11.309,27.325-28.967,52.055-44.253,77.682C358.686,1750.506,354.089,1751.731,348.783,1755.016z"/>
					<path style="fill:#22423D;" d="M272.666,1921.375c0.319-1.777,0.051-3.863,0.965-4.829c21.393-22.6,42.355-45.658,64.05-67.896
						c22.428-23.005,52.887-34.258,83.148-43.251c27.388-8.132,43.994-0.19,51.118,22.272c4.394,15.966,0.612,33.071-10.101,45.701
						c-9.867,14.065-25.269,23.253-42.337,25.256c-27.99,3.453-55.779,8.374-83.252,14.745c-12.697,2.431-24.995,6.616-36.54,12.434
						c-8.235,6.318-20.035,4.768-26.355-3.463C273.119,1922.028,272.887,1921.705,272.666,1921.375z M433.44,1843.632
						c-21.298-2.294-33.469,9.606-46.349,19.781C402.706,1859.782,421.434,1863.706,433.44,1843.632z"/>
					<path style="fill:#F19D42;" d="M515.191,1507.793c-7.773-11.195-10.292-25.216-6.901-38.415
						c5.176-20.349,10.438-40.751,17.33-60.54c8.229-23.618,17.701-46.847,27.664-69.801c4.733-11.95,11.142-23.166,19.039-33.31
						c11.052-14.024,31.387-16.437,45.416-5.388c4.589,3.613,8.112,8.401,10.197,13.856c13.759,32.499,13.034,60.721-14.372,89.418
						c-19.556,20.47-40.336,39.785-59.866,60.29c-6.185,6.179-10.803,13.748-13.465,22.074
						C537.541,1497.931,527.406,1506.76,515.191,1507.793z M560.729,1400.181c41.276-25.429,53.387-49.607,37.567-74.061
						C577.918,1345.97,564.706,1372.018,560.729,1400.181z"/>
					<path style="fill:#5B6BCB;" d="M585.521,1678.515c-27.535,25.721-58.192,43.053-98.08,33.361
						c-16.149-3.923-22.083-11.011-15.768-25.972c13.439-31.852,27.198-64.256,57.795-84.58
						c19.208-12.589,44.987-7.229,57.581,11.97c1.202,1.834,2.257,3.759,3.156,5.758c1.553,3.708,2.182,7.838,3.942,11.417
						C603.049,1648.525,602.747,1664.761,585.521,1678.515z M499.854,1693.423c21.803-8.662,41.94-21.031,59.521-36.56
						c6.306-6.036,10.817-12.874,5.055-21.29c-4.495-7.622-14.321-10.159-21.946-5.666c-0.571,0.337-1.122,0.709-1.647,1.114
						C519.968,1646.08,505.378,1668.295,499.854,1693.423z"/>
					<path style="fill:#5B6BCB;" d="M709.549,1367.949c3.398-12.986,5.106-19.832,7.004-26.731
						c2.304-8.295,4.779-16.538,7.134-24.816c0.216-0.767,0.095-1.621,0.233-2.414c4.072-24.144,51.965-72.017,76.091-76.475
						c12.864-3.859,26.775,0.618,34.971,11.253c8.82,11.515,8.439,27.613-0.914,38.699c-9.188,12.288-20.127,23.165-32.469,32.284
						c-22.006,15.116-45.632,27.92-68.88,41.148C725.224,1363.94,717.469,1366.301,709.549,1367.949z M805.765,1272.745
						c-24.085,1.19-33.185,8.261-39.681,29.723C782.957,1297.113,792.877,1285.231,805.765,1272.745z"/>
					<path style="fill:#AC1F71;" d="M678.701,1678.782c-8.767-14.447-7.739-32.797,2.587-46.175
						c21.795-30.173,50.284-54.891,83.234-72.215c14.346-7.097,21.031-5.467,31.823,6.225c15.919,15.821,15.993,41.547,0.166,57.46
						c-1.444,1.452-2.996,2.794-4.643,4.012C757.346,1650.896,718.605,1664.322,678.701,1678.782z M775.392,1589.105
						c-16.545,3.26-38.524,20.695-49.377,39.243c33.452-6.269,50.481-19.807,49.377-39.225V1589.105z"/>
					<path style="fill:#AC1F71;" d="M218.079,1679.446c-2.098,7.386-4.639,14.64-7.608,21.721
						c-2.218,4.63-6.142,11.106-9.947,11.571c-5.339-0.697-10.076-3.776-12.878-8.372c-10.257-16.383,1.596-52.323,19.65-61.955
						c16.208-8.622,42.157,0.138,52.198,18.315c17.816,31.748,18.396,70.341,1.544,102.611c-1.714,4.545-4.673,8.517-8.539,11.459
						c-5.04,3.565-11.165,5.263-17.322,4.803c-8.394-1.91-13.806-10.076-12.292-18.547c1.155-7.976,3.934-15.711,5.313-23.67
						c2.737-11.76,4.315-23.76,4.71-35.827c-1.628-7.953-4.588-15.573-8.756-22.54L218.079,1679.446z"/>
					<path style="fill:#8591F6;" d="M609.398,1507.939c7.962-43.355,45.296-54.995,78.421-55.332
						c23.815,0.785,42.897,19.977,43.536,43.787c0.776,11.52-3.511,20.694-14.458,21.651c-34.505,3.113-69.269,6.364-102.953-5.915
						C612.59,1511.656,611.641,1510.052,609.398,1507.939z"/>
					<path style="fill:#5B6BCB;" d="M368.831,2009.447c4.425-6.139,8.186-11.304,11.904-16.495
						c20.16-28.196,32.418-32.68,63.291-18.401c15.866,7.923,30.786,17.614,44.476,28.886c12.25,9.485,10.955,18.108-1.596,27.007
						c-16.208,11.529-34.677,12.072-53.43,10.692C408.73,2038.99,385.678,2027.69,368.831,2009.447z"/>
					<path style="fill:#F19D42;" d="M774.426,1754.352c-7.676-9.424-14.714-19.351-21.064-29.714
						c-7.893-14.116-3.761-22.299,11.101-27.817c26.271-11.273,56.851-2.585,73.262,20.815c7.005,7.701,12.738,16.468,16.985,25.972
						c5.805,16.012-1.422,28.869-17.977,30.059C816.747,1775.133,796.008,1774.529,774.426,1754.352z"/>
					<path style="fill:#AC1F71;" d="M164.002,2020.019c11.835-2.587,22.902-4.837,33.883-7.424
						c30.505-6.529,61.208,10.187,72.27,39.345c6.117,13.902-0.198,30.128-14.105,36.242c-1.682,0.739-3.432,1.308-5.226,1.699
						c-35.894,7.458-83.674-26.533-88.634-63.11C162.482,2024.448,163.091,2022.176,164.002,2020.019z M219.666,2051.199
						l-0.793,3.199l10.912,2.923l0.862-3.613L219.666,2051.199z"/>
					<path style="fill:#22423D;" d="M426.143,1308.159c-2.143,4.086-4.075,8.28-5.788,12.563
						c-2.588,8.468-6.901,15.193-16.891,13.727c-9.989-1.466-11.576-10.425-13.223-18.22c-3.353-13.783,1.893-28.232,13.31-36.655
						c10.951-8.912,25.969-10.952,38.904-5.286c12.74,3.856,22.672,13.881,26.405,26.653c4.805,17.787,7.39,36.1,7.695,54.521
						c-1.673,11.017-6.371,21.353-13.569,29.861c-4.413,4.131-10.538,5.9-16.476,4.76c-3.338-0.776-6.357-8.623-7.039-13.616
						c-0.863-6.208,1.639-12.804,1.319-19.168c-0.459-12.009-1.693-23.977-3.691-35.828
						C436.409,1317.644,431.604,1314.557,426.143,1308.159z"/>
					<path style="fill:#AC1F71;" d="M980.73,1280.161c10.722,33.327,9.032,32.103-16.632,51.875
						c-8.29,6.348-16.99,12.144-26.042,17.349c-7.364,3.799-14.916,7.224-22.626,10.261c-2.963-6.007-6.82-11.53-11.439-16.383
						c-5.857-3.056-12.133-5.235-18.623-6.467c-6.177-22.229,12.154-31.904,24.222-42.622
						C928.162,1277.583,954.947,1266.865,980.73,1280.161z"/>
					<path style="fill:#AC1F71;" d="M582.191,1794.396l20.625,0.647c12.689-23.928,35.29-28.912,56.32-11.081
						c7.266,6.357,13.041,14.235,16.916,23.075c9.722,22.195-3.751,38.613-28.147,35.267c-11.214-1.535-22.307-3.449-33.331-5.846
						C588.479,1830.844,584.4,1825.697,582.191,1794.396z"/>
					<path style="fill:#22423D;" d="M914.938,1466.602c-9.449,3.967-19.095,7.453-28.898,10.442
						c-6.405,0.948-12.896,1.159-19.349,0.63c-24.817,0.465-35.859-10.856-33.927-34.957c-0.029-2.429,0.619-4.817,1.872-6.898
						c10.829-13.295,26.474-21.774,43.528-23.592c14.198-1.746,27.762,6.392,32.9,19.737
						C916.482,1442.674,926.333,1452.159,914.938,1466.602z"/>
				</g>
			</g>
		</g>
		<g>
			<defs>
				<rect id="SVGID_00000089541266951971567540000003510825647722569617_" x="2303" y="-101" width="1418" height="1587"/>
			</defs>
			<clipPath id="SVGID_00000068671383209763845060000005116074033597099655_">
				<use xlink:href="#SVGID_00000089541266951971567540000003510825647722569617_"  style="overflow:visible;"/>
			</clipPath>
			<g style="clip-path:url(#SVGID_00000068671383209763845060000005116074033597099655_);">
				<g>
					<defs>
						<rect id="SVGID_00000082344099919188550250000006332727472874923927_" x="2303" y="-101" width="1418" height="1587"/>
					</defs>
					<clipPath id="SVGID_00000053521421798067950020000016014797270623595672_">
						<use xlink:href="#SVGID_00000082344099919188550250000006332727472874923927_"  style="overflow:visible;"/>
					</clipPath>
					<g style="clip-path:url(#SVGID_00000053521421798067950020000016014797270623595672_);">
						<g>
							<defs>
								<rect id="SVGID_00000129919003958769224620000002434475576557993874_" x="2303" y="-101" width="1418" height="1587"/>
							</defs>
							<clipPath id="SVGID_00000082329102730663233830000004391089586769073301_">
								<use xlink:href="#SVGID_00000129919003958769224620000002434475576557993874_"  style="overflow:visible;"/>
							</clipPath>
							<g style="clip-path:url(#SVGID_00000082329102730663233830000004391089586769073301_);">
								<path style="fill:#6A6C6E;" d="M2836.216,117.274c-40.106-86.048-146.222-121.923-265.25-88.326
									C2450.205,66.2,2384.835,223.88,2443.653,336.949c43.551,78.913,167.891,119.672,256.458,103.117
									c104.765-22.357,204.059-204.387,147.376-303.006L2836.216,117.274"/>
								<path style="fill:#F19D42;" d="M2574.43,846.467c-113.09,136.125-89.108,343.718,62.176,517.799
									c158.878,174.111,476.567,158.972,620.318-30.279c98.336-136.227,68.086-378.462-30.286-514.725
									c-121.012-158.946-506.82-181.666-627.831-7.552L2574.43,846.467"/>
								<path style="fill:#F19D42;" d="M2725.948,223.702c40.008-62.734,31.176-137.676-4.086-200.371
									c-36.482-64.871-95.037-111.503-169.239-122.012c-63.63-9.031-131.32,9.699-181.706,49.336
									c-56.591,44.518-74.664,110.072-65.769,179.735c7.004,54.704,31.024,117.227,72.581,155.15
									c33.625,30.668,82.388,41.88,126.529,44.881c47.851,3.232,97.581-4.716,141.147-25.062
									c19.411-9.069,37.24-21.534,51.971-37.099C2709.668,255.267,2717.479,239.241,2725.948,223.702
									c2.439-4.445-7.25-3.956-8.997-0.695c-12.061,22.104-23.695,42.088-43.83,58.048
									c-25.013,19.885-56.156,30.998-87.052,37.626c-61.29,13.157-134.655,7.782-187.756-27.964
									c-29.505-19.885-48.662-54.312-62.434-86.17c-15.9-36.766-24.139-77.251-23.546-117.274
									c1.159-78.767,52.277-138.514,123.75-166.518c82.929-32.486,175.784-12.378,236.543,52.106
									c62.583,66.431,96.922,167.652,44.325,250.146C2714.282,227.191,2723.971,226.805,2725.948,223.702"/>
								<g>
									<defs>
										<rect id="SVGID_00000114053876487245783940000002897823128646046899_" x="3130" y="301" width="475" height="103"/>
									</defs>
									<clipPath id="SVGID_00000119097830277323580210000012749810769089273786_">
										<use xlink:href="#SVGID_00000114053876487245783940000002897823128646046899_"  style="overflow:visible;"/>
									</clipPath>
									<g style="clip-path:url(#SVGID_00000119097830277323580210000012749810769089273786_);">
										<g>
											<defs>
												<path id="SVGID_00000017497538606390910240000012986434150745503920_" d="M3061.5,384.006
													c-146.42,99.325-181.02,305.394-84,514.695c104.23,211.409,413.65,285.179,604.26,143.379
													c132.32-103.576,170.48-344.667,113.83-502.887c-72.14-186.349-436.43-315.402-601-181.799L3061.5,384.006z"/>
											</defs>
											<clipPath id="SVGID_00000143615244346920538700000004422640125603255957_">
												<use xlink:href="#SVGID_00000017497538606390910240000012986434150745503920_"  style="overflow:visible;"/>
											</clipPath>
											<g style="clip-path:url(#SVGID_00000143615244346920538700000004422640125603255957_);">
												<path style="fill:#444446;" d="M3132.616,286.265c158.153,22.588,308.524,78.648,463.384,115.582
													c1.91,0.429,8.44-2.572,5.97-3.133c-155.32-37.032-306.126-93.191-464.707-115.845
													C3135.417,282.604,3128.728,285.737,3132.616,286.265"/>
											</g>
										</g>
									</g>
								</g>
								<g>
									<defs>
										<rect id="SVGID_00000139291102341284488200000004280996722779032734_" x="3136" y="301" width="473" height="87"/>
									</defs>
									<clipPath id="SVGID_00000003818845194848071270000009764146554375239852_">
										<use xlink:href="#SVGID_00000139291102341284488200000004280996722779032734_"  style="overflow:visible;"/>
									</clipPath>
									<g style="clip-path:url(#SVGID_00000003818845194848071270000009764146554375239852_);">
										<g>
											<defs>
												<path id="SVGID_00000094611634700176673130000007513448647317809030_" d="M3061.5,384.006
													c-146.42,99.325-181.02,305.394-84,514.695c104.23,211.409,413.65,285.179,604.26,143.379
													c132.32-103.576,170.48-344.667,113.83-502.887c-72.14-186.349-436.43-315.402-601-181.799L3061.5,384.006z"/>
											</defs>
											<clipPath id="SVGID_00000121243619775249199680000001699298926579006868_">
												<use xlink:href="#SVGID_00000094611634700176673130000007513448647317809030_"  style="overflow:visible;"/>
											</clipPath>
											<g style="clip-path:url(#SVGID_00000121243619775249199680000001699298926579006868_);">
												<path style="fill:#444446;" d="M3138.087,271.491c158.119,22.555,308.493,78.615,463.353,115.516
													c1.94,0.495,8.43-2.506,5.96-3.099c-155.32-37.033-306.086-93.192-464.666-115.846
													C3140.888,267.798,3134.165,270.931,3138.087,271.491"/>
											</g>
										</g>
									</g>
								</g>
								<g>
									<defs>
										<rect id="SVGID_00000012432039508427055540000017119354141027679881_" x="3123" y="301" width="489" height="123"/>
									</defs>
									<clipPath id="SVGID_00000126285805406150845260000010492617861573099182_">
										<use xlink:href="#SVGID_00000012432039508427055540000017119354141027679881_"  style="overflow:visible;"/>
									</clipPath>
									<g style="clip-path:url(#SVGID_00000126285805406150845260000010492617861573099182_);">
										<g>
											<defs>
												<path id="SVGID_00000027577783374393726380000000873737592927018942_" d="M3061.5,384.006
													c-146.42,99.325-181.02,305.394-84,514.695c104.23,211.409,413.65,285.179,604.26,143.379
													c132.32-103.576,170.48-344.667,113.83-502.887c-72.14-186.349-436.43-315.402-601-181.799L3061.5,384.006z"/>
											</defs>
											<clipPath id="SVGID_00000127759624798701768930000001931363171466325677_">
												<use xlink:href="#SVGID_00000027577783374393726380000000873737592927018942_"  style="overflow:visible;"/>
											</clipPath>
											<g style="clip-path:url(#SVGID_00000127759624798701768930000001931363171466325677_);">
												<path style="fill:#444446;" d="M3127.245,301.005c80.015,9.563,157.163,34.493,234.115,57.346
													c79.65,23.677,163.33,30.932,240.61,62.919c2.2,0.891,8.89-2.341,5.8-3.594c-73.82-30.536-153.58-39.572-230.26-60.083
													c-81.765-21.863-161.286-50.519-245.783-60.611C3129.387,296.685,3123.092,300.511,3127.245,301.005"/>
											</g>
										</g>
									</g>
								</g>
								<g>
									<defs>
										<rect id="SVGID_00000079448163047611537320000017309235062903219135_" x="3107" y="301" width="567" height="156"/>
									</defs>
									<clipPath id="SVGID_00000062191479527520323620000013524383939438853273_">
										<use xlink:href="#SVGID_00000079448163047611537320000017309235062903219135_"  style="overflow:visible;"/>
									</clipPath>
									<g style="clip-path:url(#SVGID_00000062191479527520323620000013524383939438853273_);">
										<g>
											<defs>
												<path id="SVGID_00000022520846421095225560000014845950265281416595_" d="M3061.5,384.006
													c-146.42,99.325-181.02,305.394-84,514.695c104.23,211.409,413.65,285.179,604.26,143.379
													c132.32-103.576,170.48-344.667,113.83-502.887c-72.14-186.349-436.43-315.402-601-181.799L3061.5,384.006z"/>
											</defs>
											<clipPath id="SVGID_00000181059996703577714800000017424766897331047312_">
												<use xlink:href="#SVGID_00000022520846421095225560000014845950265281416595_"  style="overflow:visible;"/>
											</clipPath>
											<g style="clip-path:url(#SVGID_00000181059996703577714800000017424766897331047312_);">
												<path style="fill:#444446;" d="M3110.404,302.588c79.917,40.264,170.709,48.739,255.466,74.527
													c98.8,30.041,199.12,52.96,299.24,78.022c2.77,0.692,8.7-3.396,4.35-4.485c-98.24-24.601-197.4-45.705-294.03-76.406
													c-85.749-27.205-178.155-34.691-259.291-75.582C3113.634,297.411,3107.01,300.873,3110.404,302.588"/>
											</g>
										</g>
									</g>
								</g>
								<g>
									<g>
										<defs>
											<path id="SVGID_00000183945262226451406630000017749650911388753045_" d="M3061.5,384.006
												c-146.42,99.325-181.02,305.394-84,514.695c104.23,211.409,413.65,285.179,604.26,143.379
												c132.32-103.576,170.48-344.667,113.83-502.887c-72.14-186.349-436.43-315.402-601-181.799L3061.5,384.006z"/>
										</defs>
										<clipPath id="SVGID_00000035527779592255041980000011089118154582106807_">
											<use xlink:href="#SVGID_00000183945262226451406630000017749650911388753045_"  style="overflow:visible;"/>
										</clipPath>
										<g style="clip-path:url(#SVGID_00000035527779592255041980000011089118154582106807_);">
											<path style="fill:#444446;" d="M3091.521,326.331c199.478,37.23,390.289,108.36,586.079,160.034
												c1.91,0.527,8.47-2.474,5.93-3.133c-196.22-51.773-387.423-123.002-587.362-160.298
												C3094.289,322.605,3087.632,325.606,3091.521,326.331"/>
										</g>
									</g>
								</g>
								<g>
									<g>
										<defs>
											<path id="SVGID_00000133503107097985642810000010696312682965409432_" d="M3061.5,384.006
												c-146.42,99.325-181.02,305.394-84,514.695c104.23,211.409,413.65,285.179,604.26,143.379
												c132.32-103.576,170.48-344.667,113.83-502.887c-72.14-186.349-436.43-315.402-601-181.799L3061.5,384.006z"/>
										</defs>
										<clipPath id="SVGID_00000041265915456623696870000004082331608750844831_">
											<use xlink:href="#SVGID_00000133503107097985642810000010696312682965409432_"  style="overflow:visible;"/>
										</clipPath>
										<g style="clip-path:url(#SVGID_00000041265915456623696870000004082331608750844831_);">
											<path style="fill:#444446;" d="M3087.171,338.17c99.92,16.686,196.71,48.673,293.139,78.879
												c101.8,31.92,208.18,46.925,307.5,87.025c2.25,0.889,8.9-2.341,5.84-3.561c-95.8-38.682-198.13-54.873-296.9-83.86
												c-101.203-29.679-200.728-65.063-305.097-82.507C3089.28,333.751,3082.986,337.477,3087.171,338.17"/>
										</g>
									</g>
								</g>
								<g>
									<defs>
										<rect id="SVGID_00000176010476381492665000000005298125576926625178_" x="3064" y="334" width="660" height="192"/>
									</defs>
									<clipPath id="SVGID_00000034767984166511127780000010560509703810086846_">
										<use xlink:href="#SVGID_00000176010476381492665000000005298125576926625178_"  style="overflow:visible;"/>
									</clipPath>
									<g style="clip-path:url(#SVGID_00000034767984166511127780000010560509703810086846_);">
										<g>
											<defs>
												<path id="SVGID_00000149341655564356536140000004579800541019227582_" d="M3061.5,384.006
													c-146.42,99.325-181.02,305.394-84,514.695c104.23,211.409,413.65,285.179,604.26,143.379
													c132.32-103.576,170.48-344.667,113.83-502.887c-72.14-186.349-436.43-315.402-601-181.799L3061.5,384.006z"/>
											</defs>
											<clipPath id="SVGID_00000045612416411315717350000011702013688216877497_">
												<use xlink:href="#SVGID_00000149341655564356536140000004579800541019227582_"  style="overflow:visible;"/>
											</clipPath>
											<g style="clip-path:url(#SVGID_00000045612416411315717350000011702013688216877497_);">
												<path style="fill:#444446;" d="M3065.684,341.368c95.702,45.277,202.214,58.335,302.696,89.168
													c116.3,35.681,234.34,63.843,352.03,94.411c2.77,0.725,8.66-3.363,4.35-4.518
													c-115.81-30.041-232.6-56.554-346.76-92.729c-101.468-32.152-209.627-44.386-306.582-90.256
													C3068.914,336.257,3062.29,339.752,3065.684,341.368"/>
											</g>
										</g>
									</g>
								</g>
								<g>
									<g>
										<defs>
											<path id="SVGID_00000044890907640611717750000004214188621615045281_" d="M3061.5,384.006
												c-146.42,99.325-181.02,305.394-84,514.695c104.23,211.409,413.65,285.179,604.26,143.379
												c132.32-103.576,170.48-344.667,113.83-502.887c-72.14-186.349-436.43-315.402-601-181.799L3061.5,384.006z"/>
										</defs>
										<clipPath id="SVGID_00000004522178309193767900000015370710987245816979_">
											<use xlink:href="#SVGID_00000044890907640611717750000004214188621615045281_"  style="overflow:visible;"/>
										</clipPath>
										<g style="clip-path:url(#SVGID_00000004522178309193767900000015370710987245816979_);">
											<path style="fill:#444446;" d="M3076.526,374.971c105.326,18.895,207.421,53.026,309.124,85.475
												c107.83,34.46,220.43,51.871,325.76,94.444c2.24,0.891,8.9-2.341,5.83-3.594c-101.8-41.155-210.38-59.589-315.12-91.147
												c-106.474-32.086-211.371-69.514-321.112-89.201C3078.636,370.52,3072.341,374.213,3076.526,374.971"/>
										</g>
									</g>
								</g>
								<g>
									<g>
										<defs>
											<path id="SVGID_00000127750749194137066420000008921261772168162478_" d="M3061.5,384.006
												c-146.42,99.325-181.02,305.394-84,514.695c104.23,211.409,413.65,285.179,604.26,143.379
												c132.32-103.576,170.48-344.667,113.83-502.887c-72.14-186.349-436.43-315.402-601-181.799L3061.5,384.006z"/>
										</defs>
										<clipPath id="SVGID_00000052069665811616047360000003104826891281275275_">
											<use xlink:href="#SVGID_00000127750749194137066420000008921261772168162478_"  style="overflow:visible;"/>
										</clipPath>
										<g style="clip-path:url(#SVGID_00000052069665811616047360000003104826891281275275_);">
											<path style="fill:#444446;" d="M3055.04,378.136c95.702,45.31,202.246,58.368,302.69,89.201
												c116.3,35.681,234.35,63.843,352.07,94.411c2.73,0.693,8.66-3.396,4.35-4.517c-115.84-30.042-232.64-56.588-346.76-92.73
												c-101.503-32.152-209.662-44.386-306.583-90.256C3058.269,373.058,3051.678,376.554,3055.04,378.136"/>
										</g>
									</g>
								</g>
								<g>
									<defs>
										<rect id="SVGID_00000075163661645141118790000008872846337427989680_" x="3014" y="393" width="710" height="206"/>
									</defs>
									<clipPath id="SVGID_00000093859591516583345620000007161456923305696389_">
										<use xlink:href="#SVGID_00000075163661645141118790000008872846337427989680_"  style="overflow:visible;"/>
									</clipPath>
									<g style="clip-path:url(#SVGID_00000093859591516583345620000007161456923305696389_);">
										<g>
											<defs>
												<path id="SVGID_00000139290644919870408500000014918606408420669572_" d="M3061.5,384.006
													c-146.42,99.325-181.02,305.394-84,514.695c104.23,211.409,413.65,285.179,604.26,143.379
													c132.32-103.576,170.48-344.667,113.83-502.887c-72.14-186.349-436.43-315.402-601-181.799L3061.5,384.006z"/>
											</defs>
											<clipPath id="SVGID_00000049186500281898488200000012860659182305368477_">
												<use xlink:href="#SVGID_00000139290644919870408500000014918606408420669572_"  style="overflow:visible;"/>
											</clipPath>
											<g style="clip-path:url(#SVGID_00000049186500281898488200000012860659182305368477_);">
												<path style="fill:#444446;" d="M3018.525,399.736c116.233,33.405,235.301,55.731,351.235,90.257
													c118.28,35.251,235.7,73.142,354.27,107.503c1.75,0.494,8.27-2.308,5.97-3.001
													c-118.54-34.361-236.13-71.757-354.24-107.47c-115.804-34.988-235.037-56.851-351.27-90.29
													C3022.71,396.241,3016.185,399.044,3018.525,399.736"/>
											</g>
										</g>
									</g>
								</g>
								<g>
									<defs>
										<rect id="SVGID_00000142869948561126010090000007140255023360477589_" x="2988" y="400" width="736" height="218"/>
									</defs>
									<clipPath id="SVGID_00000013193457815714161250000009077511393482377400_">
										<use xlink:href="#SVGID_00000142869948561126010090000007140255023360477589_"  style="overflow:visible;"/>
									</clipPath>
									<g style="clip-path:url(#SVGID_00000013193457815714161250000009077511393482377400_);">
										<g>
											<defs>
												<path id="SVGID_00000050640487219618512700000007093178072491055245_" d="M3061.5,384.006
													c-146.42,99.325-181.02,305.394-84,514.695c104.23,211.409,413.65,285.179,604.26,143.379
													c132.32-103.576,170.48-344.667,113.83-502.887c-72.14-186.349-436.43-315.402-601-181.799L3061.5,384.006z"/>
											</defs>
											<clipPath id="SVGID_00000048477954557848500870000012855023504571356070_">
												<use xlink:href="#SVGID_00000050640487219618512700000007093178072491055245_"  style="overflow:visible;"/>
											</clipPath>
											<g style="clip-path:url(#SVGID_00000048477954557848500870000012855023504571356070_);">
												<path style="fill:#444446;" d="M3749.57,613.094c-124.34-35.747-251.58-60.314-375.59-97.313
													c-125.46-37.461-250.196-77.329-375.986-113.769c-1.78-0.494-8.305,2.308-5.965,3.001
													c125.79,36.439,250.625,75.845,375.951,113.736c123.88,37.461,251.29,61.566,375.63,97.346
													C3745.39,616.589,3751.91,613.786,3749.57,613.094"/>
											</g>
										</g>
									</g>
								</g>
								<g>
									<defs>
										<rect id="SVGID_00000106124333790882547430000000159968498028475528_" x="3051" y="1016" width="472" height="100"/>
									</defs>
									<clipPath id="SVGID_00000120526176167756955970000005211812225538064022_">
										<use xlink:href="#SVGID_00000106124333790882547430000000159968498028475528_"  style="overflow:visible;"/>
									</clipPath>
									<g style="clip-path:url(#SVGID_00000120526176167756955970000005211812225538064022_);">
										<g>
											<defs>
												<path id="SVGID_00000096741057801600035080000017099654260630171829_" d="M3061.5,384.006
													c-146.42,99.325-181.02,305.394-84,514.695c104.23,211.409,413.65,285.179,604.26,143.379
													c132.32-103.576,170.48-344.667,113.83-502.887c-72.14-186.349-436.43-315.402-601-181.799L3061.5,384.006z"/>
											</defs>
											<clipPath id="SVGID_00000133492881921837456860000006528837001617008770_">
												<use xlink:href="#SVGID_00000096741057801600035080000017099654260630171829_"  style="overflow:visible;"/>
											</clipPath>
											<g style="clip-path:url(#SVGID_00000133492881921837456860000006528837001617008770_);">
												<path style="fill:#444446;" d="M3521.13,1135.67c-158.16-22.585-308.498-78.62-463.388-115.554
													c-1.879-0.42-8.437,2.542-5.965,3.142c155.318,37.024,306.123,93.19,464.703,115.804
													C3518.36,1139.332,3525.01,1136.23,3521.13,1135.67"/>
											</g>
										</g>
									</g>
								</g>
								<g>
									<defs>
										<rect id="SVGID_00000170957311275463954770000000168462220734770065_" x="3044" y="1033" width="476" height="83"/>
									</defs>
									<clipPath id="SVGID_00000116949633822119485080000006617696816630773687_">
										<use xlink:href="#SVGID_00000170957311275463954770000000168462220734770065_"  style="overflow:visible;"/>
									</clipPath>
									<g style="clip-path:url(#SVGID_00000116949633822119485080000006617696816630773687_);">
										<g>
											<defs>
												<path id="SVGID_00000073688462093807207680000001515977703434756513_" d="M3061.5,384.006
													c-146.42,99.325-181.02,305.394-84,514.695c104.23,211.409,413.65,285.179,604.26,143.379
													c132.32-103.576,170.48-344.667,113.83-502.887c-72.14-186.349-436.43-315.402-601-181.799L3061.5,384.006z"/>
											</defs>
											<clipPath id="SVGID_00000093895708611636083230000000529339163591564191_">
												<use xlink:href="#SVGID_00000073688462093807207680000001515977703434756513_"  style="overflow:visible;"/>
											</clipPath>
											<g style="clip-path:url(#SVGID_00000093895708611636083230000000529339163591564191_);">
												<path style="fill:#444446;" d="M3515.66,1150.479c-158.12-22.594-308.499-78.62-463.356-115.554
													c-1.911-0.46-8.436,2.542-5.965,3.132c155.319,37.034,306.121,93.16,464.671,115.814
													C3512.85,1154.142,3519.58,1151.04,3515.66,1150.479"/>
											</g>
										</g>
									</g>
								</g>
								<g>
									<defs>
										<rect id="SVGID_00000092458747070794229610000011981692287691841212_" x="3044" y="1000" width="485" height="116"/>
									</defs>
									<clipPath id="SVGID_00000085944559088395655790000018149065694105211541_">
										<use xlink:href="#SVGID_00000092458747070794229610000011981692287691841212_"  style="overflow:visible;"/>
									</clipPath>
									<g style="clip-path:url(#SVGID_00000085944559088395655790000018149065694105211541_);">
										<g>
											<defs>
												<path id="SVGID_00000175289735281927211590000005636074575025193633_" d="M3061.5,384.006
													c-146.42,99.325-181.02,305.394-84,514.695c104.23,211.409,413.65,285.179,604.26,143.379
													c132.32-103.576,170.48-344.667,113.83-502.887c-72.14-186.349-436.43-315.402-601-181.799L3061.5,384.006z"/>
											</defs>
											<clipPath id="SVGID_00000145739093247834662630000015710199089558186407_">
												<use xlink:href="#SVGID_00000175289735281927211590000005636074575025193633_"  style="overflow:visible;"/>
											</clipPath>
											<g style="clip-path:url(#SVGID_00000145739093247834662630000015710199089558186407_);">
												<path style="fill:#444446;" d="M3526.5,1120.96c-80.02-9.596-157.17-34.492-234.116-57.347
													c-79.653-23.675-163.294-30.96-240.607-62.92c-2.208-0.921-8.898,2.312-5.8,3.602
													c73.853,30.53,153.571,39.565,230.291,60.078c81.732,21.834,161.252,50.522,245.752,60.609
													C3524.36,1125.283,3530.65,1121.461,3526.5,1120.96"/>
											</g>
										</g>
									</g>
								</g>
								<g>
									<defs>
										<rect id="SVGID_00000000913162877307869350000001262035039673033900_" x="2981" y="964" width="565" height="152"/>
									</defs>
									<clipPath id="SVGID_00000034801662178453017470000001164762532049299113_">
										<use xlink:href="#SVGID_00000000913162877307869350000001262035039673033900_"  style="overflow:visible;"/>
									</clipPath>
									<g style="clip-path:url(#SVGID_00000034801662178453017470000001164762532049299113_);">
										<g>
											<defs>
												<path id="SVGID_00000142139579753736017650000005913627982835276192_" d="M3061.5,384.006
													c-146.42,99.325-181.02,305.394-84,514.695c104.23,211.409,413.65,285.179,604.26,143.379
													c132.32-103.576,170.48-344.667,113.83-502.887c-72.14-186.349-436.43-315.402-601-181.799L3061.5,384.006z"/>
											</defs>
											<clipPath id="SVGID_00000119832504435585963620000002248023457935149982_">
												<use xlink:href="#SVGID_00000142139579753736017650000005913627982835276192_"  style="overflow:visible;"/>
											</clipPath>
											<g style="clip-path:url(#SVGID_00000119832504435585963620000002248023457935149982_);">
												<path style="fill:#444446;" d="M3543.37,1119.38c-79.95-40.266-170.74-48.741-255.501-74.528
													c-98.8-30.069-199.116-52.954-299.234-78.05c-2.769-0.701-8.668,3.422-4.35,4.513
													c98.239,24.606,197.402,45.709,294.027,76.379c85.718,27.237,178.158,34.722,259.288,75.578
													C3540.11,1124.553,3546.73,1121.061,3543.37,1119.38"/>
											</g>
										</g>
									</g>
								</g>
								<g>
									<g>
										<defs>
											<path id="SVGID_00000093166470027443762960000011361558850188848034_" d="M3061.5,384.006
												c-146.42,99.325-181.02,305.394-84,514.695c104.23,211.409,413.65,285.179,604.26,143.379
												c132.32-103.576,170.48-344.667,113.83-502.887c-72.14-186.349-436.43-315.402-601-181.799L3061.5,384.006z"/>
										</defs>
										<clipPath id="SVGID_00000132781197471588886130000010702696740675672455_">
											<use xlink:href="#SVGID_00000093166470027443762960000011361558850188848034_"  style="overflow:visible;"/>
										</clipPath>
										<g style="clip-path:url(#SVGID_00000132781197471588886130000010702696740675672455_);">
											<path style="fill:#444446;" d="M3562.22,1095.604c-199.48-37.234-390.288-108.329-586.075-160.032
												c-1.879-0.5-8.437,2.472-5.965,3.132c196.248,51.803,387.46,122.999,587.39,160.293
												C3559.45,1099.367,3566.14,1096.365,3562.22,1095.604"/>
										</g>
									</g>
								</g>
								<g>
									<g>
										<defs>
											<path id="SVGID_00000132057470516023444210000009008814562325511061_" d="M3061.5,384.006
												c-146.42,99.325-181.02,305.394-84,514.695c104.23,211.409,413.65,285.179,604.26,143.379
												c132.32-103.576,170.48-344.667,113.83-502.887c-72.14-186.349-436.43-315.402-601-181.799L3061.5,384.006z"/>
										</defs>
										<clipPath id="SVGID_00000004508587906323091320000002736771190857121976_">
											<use xlink:href="#SVGID_00000132057470516023444210000009008814562325511061_"  style="overflow:visible;"/>
										</clipPath>
										<g style="clip-path:url(#SVGID_00000004508587906323091320000002736771190857121976_);">
											<path style="fill:#444446;" d="M3566.57,1083.767c-99.92-16.691-196.71-48.641-293.169-78.881
												c-101.766-31.89-208.145-46.93-307.472-86.996c-2.241-0.921-8.898,2.311-5.834,3.562
												c95.801,38.685,198.16,54.875,296.895,83.824c101.21,29.719,200.73,65.102,305.1,82.543
												C3564.46,1088.22,3570.76,1084.487,3566.57,1083.767"/>
										</g>
									</g>
								</g>
								<g>
									<g>
										<defs>
											<path id="SVGID_00000167380198623831229310000003431024951205329591_" d="M3061.5,384.006
												c-146.42,99.325-181.02,305.394-84,514.695c104.23,211.409,413.65,285.179,604.26,143.379
												c132.32-103.576,170.48-344.667,113.83-502.887c-72.14-186.349-436.43-315.402-601-181.799L3061.5,384.006z"/>
										</defs>
										<clipPath id="SVGID_00000098917023920429695070000002295294759320086676_">
											<use xlink:href="#SVGID_00000167380198623831229310000003431024951205329591_"  style="overflow:visible;"/>
										</clipPath>
										<g style="clip-path:url(#SVGID_00000098917023920429695070000002295294759320086676_);">
											<path style="fill:#444446;" d="M3588.06,1080.595c-95.7-45.269-202.25-58.327-302.696-89.167
												c-116.299-35.713-234.345-63.871-352.028-94.407c-2.769-0.726-8.7,3.359-4.35,4.48
												c115.804,30.079,232.598,56.596,346.755,92.769c101.469,32.151,209.659,44.388,306.579,90.258
												C3584.83,1085.708,3591.42,1082.216,3588.06,1080.595"/>
										</g>
									</g>
								</g>
								<g>
									<g>
										<defs>
											<path id="SVGID_00000136372397284508609300000000146584944666360245_" d="M3061.5,384.006
												c-146.42,99.325-181.02,305.394-84,514.695c104.23,211.409,413.65,285.179,604.26,143.379
												c132.32-103.576,170.48-344.667,113.83-502.887c-72.14-186.349-436.43-315.402-601-181.799L3061.5,384.006z"/>
										</defs>
										<clipPath id="SVGID_00000171695518458961092780000000519829238869479589_">
											<use xlink:href="#SVGID_00000136372397284508609300000000146584944666360245_"  style="overflow:visible;"/>
										</clipPath>
										<g style="clip-path:url(#SVGID_00000171695518458961092780000000519829238869479589_);">
											<path style="fill:#444446;" d="M3577.22,1046.993c-105.33-18.922-207.42-53.024-309.124-85.505
												c-107.863-34.422-220.438-51.843-325.763-94.411c-2.208-0.89-8.898,2.341-5.834,3.562
												c101.799,41.187,210.387,59.619,315.152,91.179c106.449,32.05,211.339,69.514,321.079,89.197
												C3575.07,1051.446,3581.4,1047.724,3577.22,1046.993"/>
										</g>
									</g>
								</g>
								<g>
									<g>
										<defs>
											<path id="SVGID_00000098917805589224903490000002006877912302408581_" d="M3061.5,384.006
												c-146.42,99.325-181.02,305.394-84,514.695c104.23,211.409,413.65,285.179,604.26,143.379
												c132.32-103.576,170.48-344.667,113.83-502.887c-72.14-186.349-436.43-315.402-601-181.799L3061.5,384.006z"/>
										</defs>
										<clipPath id="SVGID_00000106836580165425433530000001103659040320232113_">
											<use xlink:href="#SVGID_00000098917805589224903490000002006877912302408581_"  style="overflow:visible;"/>
										</clipPath>
										<g style="clip-path:url(#SVGID_00000106836580165425433530000001103659040320232113_);">
											<path style="fill:#444446;" d="M3598.7,1043.801c-95.73-45.279-202.24-58.337-302.691-89.167
												c-116.3-35.683-234.345-63.88-352.029-94.415c-2.768-0.726-8.7,3.363-4.35,4.485
												c115.805,30.074,232.599,56.589,346.723,92.762c101.497,32.151,209.657,44.388,306.587,90.258
												C3595.47,1048.904,3602.1,1045.412,3598.7,1043.801"/>
										</g>
									</g>
								</g>
								<g>
									<g>
										<defs>
											<path id="SVGID_00000132083336872797592930000004128619178060325769_" d="M3061.5,384.006
												c-146.42,99.325-181.02,305.394-84,514.695c104.23,211.409,413.65,285.179,604.26,143.379
												c132.32-103.576,170.48-344.667,113.83-502.887c-72.14-186.349-436.43-315.402-601-181.799L3061.5,384.006z"/>
										</defs>
										<clipPath id="SVGID_00000101807914218065944960000016681158495468643489_">
											<use xlink:href="#SVGID_00000132083336872797592930000004128619178060325769_"  style="overflow:visible;"/>
										</clipPath>
										<g style="clip-path:url(#SVGID_00000101807914218065944960000016681158495468643489_);">
											<path style="fill:#444446;" d="M3635.25,1022.227c-116.23-33.431-235.33-55.726-351.27-90.288
												c-118.244-35.216-235.696-73.106-354.236-107.468c-1.78-0.527-8.305,2.308-5.998,2.968
												c118.54,34.362,236.124,71.79,354.269,107.502c115.775,34.992,235.035,56.856,351.235,90.258
												C3631.03,1025.73,3637.56,1022.888,3635.25,1022.227"/>
										</g>
									</g>
								</g>
								<g>
									<defs>
										<rect id="SVGID_00000127752487555590568060000001964809472380849808_" x="2922" y="789" width="723" height="212"/>
									</defs>
									<clipPath id="SVGID_00000147207068880132787770000012772012154746378375_">
										<use xlink:href="#SVGID_00000127752487555590568060000001964809472380849808_"  style="overflow:visible;"/>
									</clipPath>
									<g style="clip-path:url(#SVGID_00000147207068880132787770000012772012154746378375_);">
										<g>
											<defs>
												<path id="SVGID_00000039829237518343145130000012902127380900723640_" d="M3061.5,384.006
													c-146.42,99.325-181.02,305.394-84,514.695c104.23,211.409,413.65,285.179,604.26,143.379
													c132.32-103.576,170.48-344.667,113.83-502.887c-72.14-186.349-436.43-315.402-601-181.799L3061.5,384.006z"/>
											</defs>
											<clipPath id="SVGID_00000044160634937151050080000008382737692900758403_">
												<use xlink:href="#SVGID_00000039829237518343145130000012902127380900723640_"  style="overflow:visible;"/>
											</clipPath>
											<g style="clip-path:url(#SVGID_00000044160634937151050080000008382737692900758403_);">
												<path style="fill:#444446;" d="M3642.67,996.571c-120.98-34.822-244.83-58.397-365.479-94.41
													c-122.363-36.501-244.001-75.479-366.66-111.061c-1.78-0.494-8.338,2.308-5.998,3.001
													c122.692,35.549,244.429,74.098,366.66,111.062c120.517,36.443,244.527,59.588,365.477,94.38
													C3638.45,1000.073,3644.97,997.231,3642.67,996.571"/>
											</g>
										</g>
									</g>
								</g>
								<g>
									<defs>
										<rect id="SVGID_00000011709985760337351670000011522506754571553943_" x="2988" y="416" width="736" height="242"/>
									</defs>
									<clipPath id="SVGID_00000109733207537264568460000015764810108514360493_">
										<use xlink:href="#SVGID_00000011709985760337351670000011522506754571553943_"  style="overflow:visible;"/>
									</clipPath>
									<g style="clip-path:url(#SVGID_00000109733207537264568460000015764810108514360493_);">
										<g>
											<defs>
												<path id="SVGID_00000095327835750182135820000018023358517762466973_" d="M3061.5,384.006
													c-146.42,99.325-181.02,305.394-84,514.695c104.23,211.409,413.65,285.179,604.26,143.379
													c132.32-103.576,170.48-344.667,113.83-502.887c-72.14-186.349-436.43-315.402-601-181.799L3061.5,384.006z"/>
											</defs>
											<clipPath id="SVGID_00000005946664619465887400000015309886943003890088_">
												<use xlink:href="#SVGID_00000095327835750182135820000018023358517762466973_"  style="overflow:visible;"/>
											</clipPath>
											<g style="clip-path:url(#SVGID_00000005946664619465887400000015309886943003890088_);">
												<path style="fill:#444446;" d="M2991.765,421.072c130.108,37.692,259.293,78.418,389.165,116.77
													c64.56,19.06,129.26,37.527,193.88,56.225c30.42,8.805,60.08,18.236,89.41,30.272
													c28.24,11.574,56.25,23.545,85.91,31.162c2.14,0.561,8.6-2.704,4.55-3.759c-31.18-8.013-60.6-20.939-90.3-33.141
													c-29.39-12.036-59.48-20.906-89.97-29.711c-64.62-18.731-129.31-37.231-193.84-56.291
													c-127.799-37.692-254.907-77.825-382.906-114.923C2995.555,417.082,2988.931,420.247,2991.765,421.072"/>
											</g>
										</g>
									</g>
								</g>
								<g>
									<defs>
										<rect id="SVGID_00000163073131543282515590000007745686770372939951_" x="2968" y="430" width="756" height="231"/>
									</defs>
									<clipPath id="SVGID_00000165931009347587789730000004515448123600277695_">
										<use xlink:href="#SVGID_00000163073131543282515590000007745686770372939951_"  style="overflow:visible;"/>
									</clipPath>
									<g style="clip-path:url(#SVGID_00000165931009347587789730000004515448123600277695_);">
										<g>
											<defs>
												<path id="SVGID_00000152247869569401015880000016006272707861096840_" d="M3061.5,384.006
													c-146.42,99.325-181.02,305.394-84,514.695c104.23,211.409,413.65,285.179,604.26,143.379
													c132.32-103.576,170.48-344.667,113.83-502.887c-72.14-186.349-436.43-315.402-601-181.799L3061.5,384.006z"/>
											</defs>
											<clipPath id="SVGID_00000096739202661610820670000000488017868610258318_">
												<use xlink:href="#SVGID_00000152247869569401015880000016006272707861096840_"  style="overflow:visible;"/>
											</clipPath>
											<g style="clip-path:url(#SVGID_00000096739202661610820670000000488017868610258318_);">
												<path style="fill:#444446;" d="M2971.07,433.043c131.03,38.054,260.017,82.87,391.15,120.627
													c60.83,17.511,122.23,32.186,183.85,46.695c62.91,14.839,125.79,31.328,184.55,58.83c1.98,0.957,7.81-2.077,6.89-2.539
													c-55.46-25.953-114.49-42.111-173.84-56.423c-63.27-15.301-126.55-29.909-189.23-47.683
													c-133.335-37.857-264.233-83.761-397.373-122.408C2975.354,429.613,2968.829,432.383,2971.07,433.043"/>
											</g>
										</g>
									</g>
								</g>
								<g>
									<defs>
										<rect id="SVGID_00000035510036231196358240000012101023427128936890_" x="2945" y="453" width="779" height="225"/>
									</defs>
									<clipPath id="SVGID_00000029035269471487230880000013130077020992573065_">
										<use xlink:href="#SVGID_00000035510036231196358240000012101023427128936890_"  style="overflow:visible;"/>
									</clipPath>
									<g style="clip-path:url(#SVGID_00000029035269471487230880000013130077020992573065_);">
										<g>
											<defs>
												<path id="SVGID_00000067938344194860985220000012142018131607667643_" d="M3061.5,384.006
													c-146.42,99.325-181.02,305.394-84,514.695c104.23,211.409,413.65,285.179,604.26,143.379
													c132.32-103.576,170.48-344.667,113.83-502.887c-72.14-186.349-436.43-315.402-601-181.799L3061.5,384.006z"/>
											</defs>
											<clipPath id="SVGID_00000026876835770345055570000004990905416897952937_">
												<use xlink:href="#SVGID_00000067938344194860985220000012142018131607667643_"  style="overflow:visible;"/>
											</clipPath>
											<g style="clip-path:url(#SVGID_00000026876835770345055570000004990905416897952937_);">
												<path style="fill:#444446;" d="M2948.363,456.588c127.537,36.702,257.908,62.457,385.177,100.083
													c132.02,39.011,263.09,81.056,395.34,119.374c1.78,0.528,8.3-2.307,5.96-2.968
													c-130.11-37.724-259.36-78.285-389.04-117.527c-129.115-39.077-261.826-64.634-391.439-101.93
													C2952.582,453.092,2946.023,455.928,2948.363,456.588"/>
											</g>
										</g>
									</g>
								</g>
								<g>
									<defs>
										<rect id="SVGID_00000004526379542184694440000001122865339270096306_" x="2922" y="456" width="802" height="242"/>
									</defs>
									<clipPath id="SVGID_00000036970734204285757370000002174051798015456385_">
										<use xlink:href="#SVGID_00000004526379542184694440000001122865339270096306_"  style="overflow:visible;"/>
									</clipPath>
									<g style="clip-path:url(#SVGID_00000036970734204285757370000002174051798015456385_);">
										<g>
											<defs>
												<path id="SVGID_00000091718839881522406290000014740977834296914577_" d="M3061.5,384.006
													c-146.42,99.325-181.02,305.394-84,514.695c104.23,211.409,413.65,285.179,604.26,143.379
													c132.32-103.576,170.48-344.667,113.83-502.887c-72.14-186.349-436.43-315.402-601-181.799L3061.5,384.006z"/>
											</defs>
											<clipPath id="SVGID_00000074410727006871369270000017357764884355829894_">
												<use xlink:href="#SVGID_00000091718839881522406290000014740977834296914577_"  style="overflow:visible;"/>
											</clipPath>
											<g style="clip-path:url(#SVGID_00000074410727006871369270000017357764884355829894_);">
												<path style="fill:#444446;" d="M3756.89,692.401c-136.6-39.34-276.13-67.568-412.44-107.997
													c-139.892-41.452-278.898-85.607-419.057-126.234c-1.779-0.494-8.304,2.309-5.964,3.001
													c138.016,39.968,275.176,82.738,412.731,124.354c138.18,41.814,280.05,69.91,418.73,109.844
													C3752.7,695.865,3759.23,693.061,3756.89,692.401"/>
											</g>
										</g>
									</g>
								</g>
								<g>
									<defs>
										<rect id="SVGID_00000098213272399873119590000001928392820572348289_" x="2922" y="472" width="802" height="265"/>
									</defs>
									<clipPath id="SVGID_00000040562855998942089100000016215932036041712512_">
										<use xlink:href="#SVGID_00000098213272399873119590000001928392820572348289_"  style="overflow:visible;"/>
									</clipPath>
									<g style="clip-path:url(#SVGID_00000040562855998942089100000016215932036041712512_);">
										<g>
											<defs>
												<path id="SVGID_00000022540376662441135060000008138689558087768211_" d="M3061.5,384.006
													c-146.42,99.325-181.02,305.394-84,514.695c104.23,211.409,413.65,285.179,604.26,143.379
													c132.32-103.576,170.48-344.667,113.83-502.887c-72.14-186.349-436.43-315.402-601-181.799L3061.5,384.006z"/>
											</defs>
											<clipPath id="SVGID_00000124163935947341560950000004303193396451286183_">
												<use xlink:href="#SVGID_00000022540376662441135060000008138689558087768211_"  style="overflow:visible;"/>
											</clipPath>
											<g style="clip-path:url(#SVGID_00000124163935947341560950000004303193396451286183_);">
												<path style="fill:#444446;" d="M2919.593,477.33c143.356,41.551,285.789,86.101,428.947,128.278
													c71.02,20.94,142.2,41.319,213.32,61.897c34.24,9.893,67.82,20.281,100.94,33.471
													c31.74,12.597,63.21,25.721,96.36,34.295c2.11,0.56,8.57-2.704,4.52-3.759c-32.63-8.441-63.74-21.402-94.98-33.933
													c-33.09-13.256-66.73-23.578-100.94-33.47c-71.12-20.577-142.3-40.99-213.35-61.864
													c-143.162-42.111-285.595-86.761-428.951-128.279C2923.383,473.339,2916.759,476.538,2919.593,477.33"/>
											</g>
										</g>
									</g>
								</g>
								<g>
									<defs>
										<rect id="SVGID_00000147929245594619058220000016695258220007322558_" x="2922" y="482" width="802" height="258"/>
									</defs>
									<clipPath id="SVGID_00000109715445614120056920000005237857158022138792_">
										<use xlink:href="#SVGID_00000147929245594619058220000016695258220007322558_"  style="overflow:visible;"/>
									</clipPath>
									<g style="clip-path:url(#SVGID_00000109715445614120056920000005237857158022138792_);">
										<g>
											<defs>
												<path id="SVGID_00000095308281741314360320000003820897866246816643_" d="M3061.5,384.006
													c-146.42,99.325-181.02,305.394-84,514.695c104.23,211.409,413.65,285.179,604.26,143.379
													c132.32-103.576,170.48-344.667,113.83-502.887c-72.14-186.349-436.43-315.402-601-181.799L3061.5,384.006z"/>
											</defs>
											<clipPath id="SVGID_00000124154382414536301260000001794385436559770760_">
												<use xlink:href="#SVGID_00000095308281741314360320000003820897866246816643_"  style="overflow:visible;"/>
											</clipPath>
											<g style="clip-path:url(#SVGID_00000124154382414536301260000001794385436559770760_);">
												<path style="fill:#444446;" d="M2897.217,488.838c145.069,42.111,288.095,91.015,433.293,132.796
													c67.43,19.423,135.45,35.977,203.67,52.432c69.3,16.719,138.57,35.054,203.76,64.436c1.98,0.891,7.81-2.11,6.89-2.54
													c-61.83-27.865-127.24-45.837-192.92-61.963c-69.93-17.18-139.83-33.768-209.1-53.454
													c-147.414-41.946-292.384-91.906-439.595-134.61C2901.468,485.409,2894.976,488.179,2897.217,488.838"/>
											</g>
										</g>
									</g>
								</g>
								<g>
									<defs>
										<rect id="SVGID_00000140708123608098962570000015263620586827583147_" x="2922" y="588" width="792" height="258"/>
									</defs>
									<clipPath id="SVGID_00000155107033215898268760000015334489768387424390_">
										<use xlink:href="#SVGID_00000140708123608098962570000015263620586827583147_"  style="overflow:visible;"/>
									</clipPath>
									<g style="clip-path:url(#SVGID_00000155107033215898268760000015334489768387424390_);">
										<g>
											<defs>
												<path id="SVGID_00000131346791980317134730000012929897441170841230_" d="M3061.5,384.006
													c-146.42,99.325-181.02,305.394-84,514.695c104.23,211.409,413.65,285.179,604.26,143.379
													c132.32-103.576,170.48-344.667,113.83-502.887c-72.14-186.349-436.43-315.402-601-181.799L3061.5,384.006z"/>
											</defs>
											<clipPath id="SVGID_00000118374181531288613250000004326455594774620054_">
												<use xlink:href="#SVGID_00000131346791980317134730000012929897441170841230_"  style="overflow:visible;"/>
											</clipPath>
											<g style="clip-path:url(#SVGID_00000118374181531288613250000004326455594774620054_);">
												<path style="fill:#444446;" d="M3711.71,839.839c-139.37-40.396-277.82-83.859-416.987-124.848
													c-68.613-20.215-137.357-39.869-206.036-59.753c-32.033-9.267-63.274-19.291-94.219-31.789
													c-29.759-11.971-59.32-24.304-90.429-32.317c-2.143-0.561-8.635,2.704-4.581,3.726
													c32.625,8.441,63.57,21.698,94.746,34.262c31.044,12.531,62.714,22.028,94.845,31.328
													c68.712,19.885,137.457,39.571,206.07,59.786c137.091,40.363,273.461,83.199,410.721,123.002
													C3707.95,843.829,3714.54,840.663,3711.71,839.839"/>
											</g>
										</g>
									</g>
								</g>
								<g>
									<defs>
										<rect id="SVGID_00000060718730985971824710000008257161165487942308_" x="2922" y="584" width="802" height="249"/>
									</defs>
									<clipPath id="SVGID_00000042011553880663907720000012543742241683978936_">
										<use xlink:href="#SVGID_00000060718730985971824710000008257161165487942308_"  style="overflow:visible;"/>
									</clipPath>
									<g style="clip-path:url(#SVGID_00000042011553880663907720000012543742241683978936_);">
										<g>
											<defs>
												<path id="SVGID_00000062904027334700736620000012710666296435805118_" d="M3061.5,384.006
													c-146.42,99.325-181.02,305.394-84,514.695c104.23,211.409,413.65,285.179,604.26,143.379
													c132.32-103.576,170.48-344.667,113.83-502.887c-72.14-186.349-436.43-315.402-601-181.799L3061.5,384.006z"/>
											</defs>
											<clipPath id="SVGID_00000136386165461941418530000016541655583126437253_">
												<use xlink:href="#SVGID_00000062904027334700736620000012710666296435805118_"  style="overflow:visible;"/>
											</clipPath>
											<g style="clip-path:url(#SVGID_00000136386165461941418530000016541655583126437253_);">
												<path style="fill:#444446;" d="M3733.42,828.132c-138.64-40.231-275.27-87.19-414.01-127.222
													c-65.353-18.863-131.297-34.889-197.438-50.685c-67.196-16.059-134.392-33.702-197.402-62.523
													c-2.011-0.924-7.844,2.11-6.888,2.54c120.814,55.235,255.964,73.966,383.105,109.976
													c143.123,40.528,283.783,89.398,426.643,130.85C3729.17,831.562,3735.7,828.792,3733.42,828.132"/>
											</g>
										</g>
									</g>
								</g>
								<g>
									<defs>
										<rect id="SVGID_00000005244985329147132090000000387132419617141426_" x="2922" y="568" width="802" height="242"/>
									</defs>
									<clipPath id="SVGID_00000150070068182717320590000010680348790822052755_">
										<use xlink:href="#SVGID_00000005244985329147132090000000387132419617141426_"  style="overflow:visible;"/>
									</clipPath>
									<g style="clip-path:url(#SVGID_00000150070068182717320590000010680348790822052755_);">
										<g>
											<defs>
												<path id="SVGID_00000093169418663664642870000010007006286185240219_" d="M3061.5,384.006
													c-146.42,99.325-181.02,305.394-84,514.695c104.23,211.409,413.65,285.179,604.26,143.379
													c132.32-103.576,170.48-344.667,113.83-502.887c-72.14-186.349-436.43-315.402-601-181.799L3061.5,384.006z"/>
											</defs>
											<clipPath id="SVGID_00000138557759020379421490000001977994222979225743_">
												<use xlink:href="#SVGID_00000093169418663664642870000010007006286185240219_"  style="overflow:visible;"/>
											</clipPath>
											<g style="clip-path:url(#SVGID_00000138557759020379421490000001977994222979225743_);">
												<path style="fill:#444446;" d="M3757.09,804.884c-136.5-39.341-275.94-67.536-412.18-107.899
													c-139.759-41.451-278.699-85.607-418.759-126.168c-1.779-0.527-8.304,2.308-5.997,3.001
													c137.95,39.935,275.044,82.639,412.466,124.255c138.12,41.781,279.89,69.877,418.5,109.778
													C3752.9,808.347,3759.43,805.544,3757.09,804.884"/>
											</g>
										</g>
									</g>
								</g>
								<g>
									<defs>
										<rect id="SVGID_00000116228362367917252330000003342689837677059722_" x="2922" y="644" width="776" height="258"/>
									</defs>
									<clipPath id="SVGID_00000049198583827495697790000006092164363874434977_">
										<use xlink:href="#SVGID_00000116228362367917252330000003342689837677059722_"  style="overflow:visible;"/>
									</clipPath>
									<g style="clip-path:url(#SVGID_00000049198583827495697790000006092164363874434977_);">
										<g>
											<defs>
												<path id="SVGID_00000072255803039593498700000005438821708838272952_" d="M3061.5,384.006
													c-146.42,99.325-181.02,305.394-84,514.695c104.23,211.409,413.65,285.179,604.26,143.379
													c132.32-103.576,170.48-344.667,113.83-502.887c-72.14-186.349-436.43-315.402-601-181.799L3061.5,384.006z"/>
											</defs>
											<clipPath id="SVGID_00000014614813008020214050000011501955617060212378_">
												<use xlink:href="#SVGID_00000072255803039593498700000005438821708838272952_"  style="overflow:visible;"/>
											</clipPath>
											<g style="clip-path:url(#SVGID_00000014614813008020214050000011501955617060212378_);">
												<path style="fill:#444446;" d="M3695.59,895.669c-139.4-40.364-277.84-83.827-417.015-124.816
													c-68.613-20.215-137.357-39.869-206.036-59.753c-32.033-9.267-63.274-19.291-94.219-31.789
													c-29.759-12.004-59.32-24.304-90.43-32.35c-2.142-0.56-8.634,2.704-4.58,3.759c32.658,8.408,63.57,21.665,94.746,34.262
													c31.077,12.531,62.714,22.028,94.845,31.328c68.712,19.852,137.457,39.571,206.103,59.786
													c137.056,40.363,273.396,83.199,410.686,122.969C3691.8,899.691,3698.39,896.493,3695.59,895.669"/>
											</g>
										</g>
									</g>
								</g>
								<g>
									<defs>
										<rect id="SVGID_00000163042136212836570650000014244026567474053789_" x="2922" y="641" width="799" height="248"/>
									</defs>
									<clipPath id="SVGID_00000091725659023845829850000006561477837578655892_">
										<use xlink:href="#SVGID_00000163042136212836570650000014244026567474053789_"  style="overflow:visible;"/>
									</clipPath>
									<g style="clip-path:url(#SVGID_00000091725659023845829850000006561477837578655892_);">
										<g>
											<defs>
												<path id="SVGID_00000072974175476379024990000006255482230655265190_" d="M3061.5,384.006
													c-146.42,99.325-181.02,305.394-84,514.695c104.23,211.409,413.65,285.179,604.26,143.379
													c132.32-103.576,170.48-344.667,113.83-502.887c-72.14-186.349-436.43-315.402-601-181.799L3061.5,384.006z"/>
											</defs>
											<clipPath id="SVGID_00000114770639814993266750000013959660732614427291_">
												<use xlink:href="#SVGID_00000072974175476379024990000006255482230655265190_"  style="overflow:visible;"/>
											</clipPath>
											<g style="clip-path:url(#SVGID_00000114770639814993266750000013959660732614427291_);">
												<path style="fill:#444446;" d="M3717.31,883.995c-138.68-40.265-275.31-87.223-414.05-127.256
													c-65.352-18.862-131.295-34.856-197.436-50.685c-67.196-16.027-134.359-33.702-197.402-62.491
													c-1.978-0.923-7.811,2.078-6.888,2.54c120.814,55.202,255.964,73.933,383.105,109.976
													c143.161,40.528,283.781,89.366,426.671,130.85C3713.02,887.424,3719.55,884.654,3717.31,883.995"/>
											</g>
										</g>
									</g>
								</g>
								<g>
									<defs>
										<rect id="SVGID_00000030452617843094126360000006216813014621911179_" x="2922" y="624" width="802" height="242"/>
									</defs>
									<clipPath id="SVGID_00000119078109074223221990000000243539299439903153_">
										<use xlink:href="#SVGID_00000030452617843094126360000006216813014621911179_"  style="overflow:visible;"/>
									</clipPath>
									<g style="clip-path:url(#SVGID_00000119078109074223221990000000243539299439903153_);">
										<g>
											<defs>
												<path id="SVGID_00000023263874227015930030000008407846943399012483_" d="M3061.5,384.006
													c-146.42,99.325-181.02,305.394-84,514.695c104.23,211.409,413.65,285.179,604.26,143.379
													c132.32-103.576,170.48-344.667,113.83-502.887c-72.14-186.349-436.43-315.402-601-181.799L3061.5,384.006z"/>
											</defs>
											<clipPath id="SVGID_00000136394536620366241000000002497453345793044926_">
												<use xlink:href="#SVGID_00000023263874227015930030000008407846943399012483_"  style="overflow:visible;"/>
											</clipPath>
											<g style="clip-path:url(#SVGID_00000136394536620366241000000002497453345793044926_);">
												<path style="fill:#444446;" d="M3740.97,860.713c-136.53-39.308-275.97-67.502-412.2-107.899
													c-139.767-41.417-278.707-85.574-418.767-126.135c-1.779-0.527-8.304,2.309-5.964,2.968
													c137.917,39.968,275.011,82.672,412.431,124.289c138.09,41.781,279.89,69.844,418.5,109.778
													C3736.75,864.208,3743.28,861.406,3740.97,860.713"/>
											</g>
										</g>
									</g>
								</g>
								<g>
									<defs>
										<rect id="SVGID_00000142154748216856994890000001628496127056977573_" x="2922" y="667" width="769" height="255"/>
									</defs>
									<clipPath id="SVGID_00000176752379983093170500000016862427133194934688_">
										<use xlink:href="#SVGID_00000142154748216856994890000001628496127056977573_"  style="overflow:visible;"/>
									</clipPath>
									<g style="clip-path:url(#SVGID_00000176752379983093170500000016862427133194934688_);">
										<g>
											<defs>
												<path id="SVGID_00000128471515696754616080000003836289123857092025_" d="M3061.5,384.006
													c-146.42,99.325-181.02,305.394-84,514.695c104.23,211.409,413.65,285.179,604.26,143.379
													c132.32-103.576,170.48-344.667,113.83-502.887c-72.14-186.349-436.43-315.402-601-181.799L3061.5,384.006z"/>
											</defs>
											<clipPath id="SVGID_00000118397830095955949430000005939571479763115428_">
												<use xlink:href="#SVGID_00000128471515696754616080000003836289123857092025_"  style="overflow:visible;"/>
											</clipPath>
											<g style="clip-path:url(#SVGID_00000118397830095955949430000005939571479763115428_);">
												<path style="fill:#444446;" d="M3689.3,917.4c-139.37-40.397-277.82-83.86-417.019-124.849
													c-68.58-20.182-137.325-39.836-206.004-59.721c-32.032-9.266-63.307-19.323-94.219-31.788
													c-29.791-12.004-59.319-24.336-90.462-32.351c-2.142-0.56-8.601,2.705-4.548,3.759
													c32.626,8.409,63.571,21.666,94.747,34.23c31.043,12.531,62.713,22.028,94.812,31.327
													c68.745,19.885,137.489,39.572,206.102,59.786c137.091,40.364,273.431,83.232,410.721,122.999
													C3685.51,921.423,3692.13,918.221,3689.3,917.4"/>
											</g>
										</g>
									</g>
								</g>
								<g>
									<defs>
										<rect id="SVGID_00000108299830326062078000000005001036353231067040_" x="2922" y="753" width="746" height="255"/>
									</defs>
									<clipPath id="SVGID_00000005267653489164197290000015616467369571997834_">
										<use xlink:href="#SVGID_00000108299830326062078000000005001036353231067040_"  style="overflow:visible;"/>
									</clipPath>
									<g style="clip-path:url(#SVGID_00000005267653489164197290000015616467369571997834_);">
										<g>
											<defs>
												<path id="SVGID_00000108307854009885917780000016552274359002132389_" d="M3061.5,384.006
													c-146.42,99.325-181.02,305.394-84,514.695c104.23,211.409,413.65,285.179,604.26,143.379
													c132.32-103.576,170.48-344.667,113.83-502.887c-72.14-186.349-436.43-315.402-601-181.799L3061.5,384.006z"/>
											</defs>
											<clipPath id="SVGID_00000063612008713965735510000009113032266902539686_">
												<use xlink:href="#SVGID_00000108307854009885917780000016552274359002132389_"  style="overflow:visible;"/>
											</clipPath>
											<g style="clip-path:url(#SVGID_00000063612008713965735510000009113032266902539686_);">
												<path style="fill:#444446;" d="M2851.969,756.739c139.368,40.396,277.813,83.859,417.016,124.849
													c68.585,20.213,137.355,39.865,206.035,59.748c32.03,9.276,63.28,19.292,94.22,31.76
													c29.73,12.008,59.32,24.336,90.43,32.351c2.14,0.56,8.6-2.702,4.55-3.722c-32.63-8.445-63.57-21.704-94.75-34.262
													c-31.04-12.538-62.71-22.034-94.81-31.33c-68.71-19.883-137.49-39.574-206.103-59.788
													c-137.094-40.363-273.43-83.199-410.689-123.002C2855.759,752.748,2849.135,755.914,2851.969,756.739"/>
											</g>
										</g>
									</g>
								</g>
								<g>
									<defs>
										<rect id="SVGID_00000124128804544892506830000001214497274922909339_" x="2922" y="723" width="752" height="255"/>
									</defs>
									<clipPath id="SVGID_00000182504107380031645590000009524971014077150615_">
										<use xlink:href="#SVGID_00000124128804544892506830000001214497274922909339_"  style="overflow:visible;"/>
									</clipPath>
									<g style="clip-path:url(#SVGID_00000182504107380031645590000009524971014077150615_);">
										<g>
											<defs>
												<path id="SVGID_00000181070459727404262250000015932598218174770570_" d="M3061.5,384.006
													c-146.42,99.325-181.02,305.394-84,514.695c104.23,211.409,413.65,285.179,604.26,143.379
													c132.32-103.576,170.48-344.667,113.83-502.887c-72.14-186.349-436.43-315.402-601-181.799L3061.5,384.006z"/>
											</defs>
											<clipPath id="SVGID_00000126321214648337565660000004756101646202263996_">
												<use xlink:href="#SVGID_00000181070459727404262250000015932598218174770570_"  style="overflow:visible;"/>
											</clipPath>
											<g style="clip-path:url(#SVGID_00000126321214648337565660000004756101646202263996_);">
												<path style="fill:#444446;" d="M3673.15,973.266c-139.37-40.396-277.81-83.864-417.017-124.853
													c-68.58-20.215-137.325-39.869-206.004-59.72c-32.032-9.3-63.307-19.324-94.252-31.789
													c-29.726-12.004-59.286-24.337-90.429-32.35c-2.142-0.561-8.602,2.704-4.548,3.726
													c32.626,8.441,63.571,21.698,94.746,34.262c31.044,12.531,62.714,22.028,94.846,31.328
													c68.711,19.885,137.456,39.571,206.069,59.786c137.099,40.363,273.459,83.196,410.719,123.002
													C3669.36,977.249,3675.98,974.087,3673.15,973.266"/>
											</g>
										</g>
									</g>
								</g>
								<g>
									<defs>
										<rect id="SVGID_00000091703111403255183490000010995031705331577236_" x="2922" y="720" width="776" height="248"/>
									</defs>
									<clipPath id="SVGID_00000005984034470435497600000004762738462754956211_">
										<use xlink:href="#SVGID_00000091703111403255183490000010995031705331577236_"  style="overflow:visible;"/>
									</clipPath>
									<g style="clip-path:url(#SVGID_00000005984034470435497600000004762738462754956211_);">
										<g>
											<defs>
												<path id="SVGID_00000058569457809121915270000016083573657775228582_" d="M3061.5,384.006
													c-146.42,99.325-181.02,305.394-84,514.695c104.23,211.409,413.65,285.179,604.26,143.379
													c132.32-103.576,170.48-344.667,113.83-502.887c-72.14-186.349-436.43-315.402-601-181.799L3061.5,384.006z"/>
											</defs>
											<clipPath id="SVGID_00000121238375855922542120000014270930499982240423_">
												<use xlink:href="#SVGID_00000058569457809121915270000016083573657775228582_"  style="overflow:visible;"/>
											</clipPath>
											<g style="clip-path:url(#SVGID_00000121238375855922542120000014270930499982240423_);">
												<path style="fill:#444446;" d="M3694.9,961.589c-138.71-40.266-275.31-87.223-414.084-127.256
													c-65.317-18.863-131.261-34.889-197.402-50.685c-67.196-16.026-134.392-33.702-197.402-62.523
													c-2.01-0.923-7.811,2.11-6.888,2.54c120.814,55.235,255.964,73.966,383.105,109.976
													c143.121,40.561,283.781,89.364,426.641,130.851C3690.62,964.981,3697.14,962.219,3694.9,961.589"/>
											</g>
										</g>
									</g>
								</g>
								<g>
									<defs>
										<rect id="SVGID_00000179632638163086760070000017946023783427256705_" x="2922" y="703" width="799" height="242"/>
									</defs>
									<clipPath id="SVGID_00000102540516299106325930000012888381835255203715_">
										<use xlink:href="#SVGID_00000179632638163086760070000017946023783427256705_"  style="overflow:visible;"/>
									</clipPath>
									<g style="clip-path:url(#SVGID_00000102540516299106325930000012888381835255203715_);">
										<g>
											<defs>
												<path id="SVGID_00000142882261920221700360000002492804667328493482_" d="M3061.5,384.006
													c-146.42,99.325-181.02,305.394-84,514.695c104.23,211.409,413.65,285.179,604.26,143.379
													c132.32-103.576,170.48-344.667,113.83-502.887c-72.14-186.349-436.43-315.402-601-181.799L3061.5,384.006z"/>
											</defs>
											<clipPath id="SVGID_00000003064857926713599660000006063459927491035808_">
												<use xlink:href="#SVGID_00000142882261920221700360000002492804667328493482_"  style="overflow:visible;"/>
											</clipPath>
											<g style="clip-path:url(#SVGID_00000003064857926713599660000006063459927491035808_);">
												<path style="fill:#444446;" d="M3718.53,938.304c-136.5-39.338-275.97-67.533-412.17-107.929
													c-139.767-41.419-278.739-85.574-418.766-126.135c-1.78-0.527-8.305,2.309-5.998,2.968
													c137.951,39.968,275.045,82.672,412.468,124.289c138.086,41.781,279.886,69.844,418.466,109.779
													C3714.31,941.806,3720.87,938.964,3718.53,938.304"/>
											</g>
										</g>
									</g>
								</g>
								<g>
									<defs>
										<rect id="SVGID_00000098216315844235443900000000313649762456201371_" x="2922" y="548" width="802" height="242"/>
									</defs>
									<clipPath id="SVGID_00000148658096224269818240000013555529935984432044_">
										<use xlink:href="#SVGID_00000098216315844235443900000000313649762456201371_"  style="overflow:visible;"/>
									</clipPath>
									<g style="clip-path:url(#SVGID_00000148658096224269818240000013555529935984432044_);">
										<g>
											<defs>
												<path id="SVGID_00000172424690020908847180000017247149125037363590_" d="M3061.5,384.006
													c-146.42,99.325-181.02,305.394-84,514.695c104.23,211.409,413.65,285.179,604.26,143.379
													c132.32-103.576,170.48-344.667,113.83-502.887c-72.14-186.349-436.43-315.402-601-181.799L3061.5,384.006z"/>
											</defs>
											<clipPath id="SVGID_00000027584157574219769020000006689564494473461405_">
												<use xlink:href="#SVGID_00000172424690020908847180000017247149125037363590_"  style="overflow:visible;"/>
											</clipPath>
											<g style="clip-path:url(#SVGID_00000027584157574219769020000006689564494473461405_);">
												<path style="fill:#444446;" d="M2897.25,554.231c136.599,39.34,276.132,67.568,412.47,107.964
													c139.86,41.451,278.9,85.64,419.02,126.267c1.78,0.494,8.34-2.309,6-3.001c-138.01-40-275.21-82.738-412.73-124.353
													c-138.181-41.815-280.054-69.91-418.762-109.844C2901.468,550.735,2894.943,553.539,2897.25,554.231"/>
											</g>
										</g>
									</g>
								</g>
								<g>
									<defs>
										<rect id="SVGID_00000142867156436765782790000006147879891547687592_" x="2922" y="509" width="802" height="264"/>
									</defs>
									<clipPath id="SVGID_00000127009534194764945050000017275656454388210614_">
										<use xlink:href="#SVGID_00000142867156436765782790000006147879891547687592_"  style="overflow:visible;"/>
									</clipPath>
									<g style="clip-path:url(#SVGID_00000127009534194764945050000017275656454388210614_);">
										<g>
											<defs>
												<path id="SVGID_00000003092737327232951950000014913992149458310298_" d="M3061.5,384.006
													c-146.42,99.325-181.02,305.394-84,514.695c104.23,211.409,413.65,285.179,604.26,143.379
													c132.32-103.576,170.48-344.667,113.83-502.887c-72.14-186.349-436.43-315.402-601-181.799L3061.5,384.006z"/>
											</defs>
											<clipPath id="SVGID_00000003815305325981739260000012477707044755052220_">
												<use xlink:href="#SVGID_00000003092737327232951950000014913992149458310298_"  style="overflow:visible;"/>
											</clipPath>
											<g style="clip-path:url(#SVGID_00000003815305325981739260000012477707044755052220_);">
												<path style="fill:#444446;" d="M3734.54,769.27c-143.32-41.518-285.75-86.101-428.94-128.278
													c-70.987-20.94-142.17-41.286-213.321-61.864c-34.208-9.926-67.789-20.281-100.909-33.471
													c-31.736-12.63-63.208-25.721-96.361-34.328c-2.142-0.528-8.602,2.704-4.548,3.759
													c32.659,8.474,63.768,21.435,95.01,33.966c33.087,13.256,66.734,23.545,100.942,33.47
													c71.117,20.577,142.301,40.957,213.32,61.864c143.187,42.111,285.627,86.761,428.947,128.278
													C3730.79,773.26,3737.38,770.094,3734.54,769.27"/>
											</g>
										</g>
									</g>
								</g>
								<g>
									<defs>
										<rect id="SVGID_00000120553442145457872340000006897597192962055839_" x="2922" y="505" width="802" height="259"/>
									</defs>
									<clipPath id="SVGID_00000091002551657995184060000000184304578603791284_">
										<use xlink:href="#SVGID_00000120553442145457872340000006897597192962055839_"  style="overflow:visible;"/>
									</clipPath>
									<g style="clip-path:url(#SVGID_00000091002551657995184060000000184304578603791284_);">
										<g>
											<defs>
												<path id="SVGID_00000128442832621975449520000008297233338401009333_" d="M3061.5,384.006
													c-146.42,99.325-181.02,305.394-84,514.695c104.23,211.409,413.65,285.179,604.26,143.379
													c132.32-103.576,170.48-344.667,113.83-502.887c-72.14-186.349-436.43-315.402-601-181.799L3061.5,384.006z"/>
											</defs>
											<clipPath id="SVGID_00000096025910677032079390000015391500215028020654_">
												<use xlink:href="#SVGID_00000128442832621975449520000008297233338401009333_"  style="overflow:visible;"/>
											</clipPath>
											<g style="clip-path:url(#SVGID_00000096025910677032079390000015391500215028020654_);">
												<path style="fill:#444446;" d="M3756.95,757.761c-145.1-42.078-288.09-91.015-433.29-132.796
													c-67.428-19.423-135.448-35.977-203.666-52.399c-69.304-16.72-138.577-35.088-203.762-64.436
													c-2.01-0.924-7.81,2.11-6.888,2.54c61.824,27.865,127.208,45.837,192.921,61.963
													c69.931,17.147,139.829,33.735,209.065,53.454c147.41,41.946,292.42,91.906,439.63,134.61
													C3752.67,761.19,3759.2,758.421,3756.95,757.761"/>
											</g>
										</g>
									</g>
								</g>
							</g>
						</g>
					</g>
				</g>
			</g>
		</g>
	</g>
</g>
</svg>
