<?xml version="1.0" encoding="utf-8"?>
<!-- Generator: Adobe Illustrator 27.5.0, SVG Export Plug-In . SVG Version: 6.00 Build 0)  -->
<svg version="1.1" id="Layer_1" xmlns="http://www.w3.org/2000/svg" xmlns:xlink="http://www.w3.org/1999/xlink" x="0px" y="0px"
	 viewBox="0 0 3000 3000" style="enable-background:new 0 0 3000 3000;" xml:space="preserve">
<g>
	<g>
		<rect style="fill:#FFFFFF;" width="3000" height="3000"/>
		<g>
			<g>
				<g>
					<g>
						<g>
							<path style="fill:#FDF1F1;" d="M2718.244,1562.799l-7.218-4.688c47.991-73.894,80.075-154.974,95.358-240.989
								c14.763-83.082,13.314-167.251-4.308-250.168c-17.62-82.917-50.525-160.401-97.799-230.3
								c-48.942-72.366-111.225-133.392-185.119-181.383c-48.811-31.701-101.388-56.71-156.273-74.333
								c-53.226-17.09-108.587-27.236-164.548-30.159c-110.394-5.764-221.307,16.757-320.75,65.128l-4.264,2.074l-1.652-4.444
								c-34.734-93.466-92.862-177.406-168.099-242.745c-38.167-33.147-80.446-61.284-125.66-83.63
								c-46.616-23.039-96.362-39.913-147.855-50.153c-78.723-15.655-158.156-15.425-236.092,0.685
								c-75.279,15.561-146.004,45.206-210.21,88.111c-64.205,42.905-118.654,96.906-161.832,160.504
								c-44.703,65.842-75.307,139.143-90.963,217.867l-8.44-1.678c15.881-79.86,46.93-154.223,92.283-221.023
								c43.804-64.52,99.04-119.302,164.171-162.826s136.879-73.596,213.248-89.383c79.07-16.344,159.651-16.58,239.514-0.698
								c52.233,10.387,102.696,27.505,149.989,50.879c45.873,22.672,88.766,51.219,127.489,84.848
								c75.135,65.25,133.448,148.786,168.861,241.825c99.654-47.593,210.436-69.691,320.71-63.934
								c56.699,2.96,112.798,13.242,166.729,30.559c55.611,17.856,108.881,43.194,158.33,75.309
								c74.865,48.622,137.969,110.455,187.56,183.779c47.898,70.821,81.236,149.326,99.089,233.332
								c17.853,84.007,19.321,169.284,4.363,253.463C2799.372,1405.783,2766.867,1487.934,2718.244,1562.799z"/>
						</g>
						<g>
							<path style="fill:#FDF1F1;" d="M1475.22,2783.17c-110.077,0-219.082-27.592-317.484-81.538
								c-84.615-46.387-156.41-108.92-213.391-185.861c-27.325-36.895-50.881-76.841-70.016-118.727
								c-18.985-41.558-33.717-85.242-43.788-129.841l8.394-1.896c9.941,44.021,24.483,87.141,43.222,128.16
								c18.886,41.342,42.135,80.767,69.104,117.182c56.236,75.933,127.096,137.65,210.612,183.436
								c143.952,78.917,310.936,100.7,470.193,61.335c158.306-39.13,295.237-135.014,385.568-269.99l1.497-2.236l2.665,0.366
								c2.217,0.305,4.437,0.598,6.665,0.871l-1.047,8.542c-1.378-0.169-2.753-0.345-4.126-0.527
								c-91.538,135.59-229.636,231.898-389.156,271.328C1581.639,2776.75,1528.297,2783.17,1475.22,2783.17z"/>
						</g>
						<g>
							<path style="fill:#FDF1F1;" d="M2794.161,2345.285c-31.034,67.202-78.61,125.971-139.287,170.837
								c-52.175,38.58-110.593,64.782-173.63,77.877c-30.229,6.28-61.257,9.4-92.223,9.272c-30.723-0.126-61.547-3.448-91.614-9.873
								l1.209-5.659c29.678,6.342,60.102,9.621,90.428,9.745c30.563,0.125,61.188-2.953,91.022-9.152
								c62.212-12.924,119.868-38.785,171.366-76.864c88.763-65.635,149.139-161.438,170.006-269.764
								c20.742-107.678,0.809-218.308-56.127-311.509l-0.944-1.544l0.975-1.524c0.811-1.267,1.616-2.54,2.411-3.824l4.92,3.047
								c-0.492,0.794-0.987,1.583-1.485,2.371c56.971,94.111,76.834,205.573,55.933,314.077
								C2820.244,2278.506,2809.125,2312.881,2794.161,2345.285z"/>
						</g>
						<g>
							<path style="fill:#FDF1F1;" d="M262.577,1623.392c0.096-0.311,0.192-0.621,0.29-0.932
								c-62.034-60.74-99.266-141.961-104.917-229.013c-5.744-88.479,21.779-175.233,77.498-244.281
								c32.324-40.058,71.92-71.865,117.687-94.537c44.218-21.906,91.735-34.134,141.228-36.342l0.383,8.597
								c-48.291,2.155-94.651,14.085-137.791,35.457c-44.644,22.116-83.271,53.147-114.81,92.23
								c-54.36,67.364-81.211,152.001-75.608,238.319c5.571,85.804,42.586,165.798,104.228,225.245l1.937,1.868l-0.832,2.559
								c-0.364,1.119-0.721,2.241-1.07,3.369l-5.821-1.797l-0.189,0.195c-0.127-0.122-0.259-0.25-0.386-0.373L262.577,1623.392z"/>
						</g>
						<g>
							<path style="fill:#FDF1F1;" d="M779.67,2376.635c-0.238-0.222-0.475-0.444-0.712-0.667
								c-81.727,29.297-171.054,27.34-251.84-5.576c-82.111-33.456-148.149-96.087-185.948-176.359
								c-21.93-46.568-33.261-96.077-33.681-147.149c-0.407-49.346,9.335-97.433,28.952-142.927l7.902,3.408
								c-19.141,44.388-28.646,91.305-28.249,139.448c0.41,49.82,11.466,98.119,32.861,143.554
								c36.878,78.313,101.304,139.417,181.409,172.056c79.629,32.444,167.757,34.061,248.149,4.552l2.526-0.927l1.939,1.865
								c0.848,0.816,1.702,1.627,2.564,2.433l-4.158,4.452l0.093,0.255c-0.166,0.061-0.339,0.124-0.504,0.185L779.67,2376.635z"/>
						</g>
					</g>
					<path style="fill:#F9DDDD;" d="M2806.892,1550.957c-51.644-129.414-150.708-225.082-267.457-273.509
						c55.066-96.102,86.552-207.446,86.552-326.145c0-362.832-294.134-656.965-656.965-656.965
						c-239.031,0-448.237,127.662-563.18,318.517c-161.333-119.865-379.233-155.744-579.604-75.784
						C541.807,650.576,392.451,957.679,469.2,1246.407c-157.928,67.174-268.67,223.748-268.67,406.195
						c0,238.367,189.03,432.552,425.359,440.909c-6.669,30.706-10.193,62.519-10.193,95.125
						c0,256.299,216.52,464.071,483.611,464.071c114.521,0,219.743-38.201,302.589-102.044
						c120.374,136.261,296.411,222.195,492.523,222.195c343.049,0,624.687-262.935,654.376-598.269
						c2.109-0.805,4.217-1.623,6.321-2.463C2793.161,2077.131,2905.885,1799.025,2806.892,1550.957z"/>
				</g>
			</g>
		</g>
	</g>
	<g>
		<g>
			<path style="fill:#C57B60;" d="M1431.3,1512.38c-3.1,42.12-43.01,47.94-54.98,48.75c10.04-0.19,39.06,0.74,39.66,17.62
				c0.73,20.43-17.5,47.41-116.7,51.79c0,0,24.05,23.07-29.25,53.41c-53.3,30.34-151.7,51.66-179.57,92.65
				c-27.88,41-150.88,231.23-214.83,266.49c-63.96,35.26-407.68,206.73-483.59,176.29c-75.92-30.43-51.35-270.69-1.12-330.13
				s218.57-22.53,299.73-161.91c48.2-82.8,85.09-189.63,136.14-235.82c51.05-46.19,190.94-192.79,241.99-192.79
				c51.06,0,241,25.98,233.71,81.89c-7.06,54.17-175.88,17.99-194.01,19.46c-0.58,0.05-1.01,0.14-1.27,0.27
				c-0.18,0.09-0.39,0.22-0.63,0.4c-10.5,7.61-72.2,92.59-72.2,92.59s126.75-61.93,149.65-62.66
				C1206.93,1429.95,1434.95,1462.78,1431.3,1512.38z"/>
			<path style="fill:#B76E54;" d="M2588.259,1619.138c-56.058,14.431-138.398-36.135-246.803-13.009
				c-108.406,23.127-249.211,67.881-313.235,69.523c-64.024,1.642-98.499-11.491-98.499-11.491s-34.656,31.439-96.857-3.186
				c0,0,12.976,35.697-22.32,46.858c-49.247,15.573-147.264-59.041-147.264-59.041s-6.893,44.097-38.084,43.277
				s-64.271-37.749-79.969-129.974c-15.698-92.225-15.698-117.734,0-133.432s99.093-71.621,129.507-89.281
				c30.415-17.66,87.798-70.64,137.596-63.773c49.797,6.868,203.832,70.64,270.548,77.508s445.657-27.46,505.38-12.755
				C2647.982,1355.068,2644.316,1604.707,2588.259,1619.138z"/>
			<g>
				<path style="fill:#B76E54;" d="M1219.407,1538.488c-0.156,0-0.315-0.036-0.463-0.114
					c-28.017-14.677-32.786-55.473-32.831-55.884c-0.06-0.549,0.336-1.042,0.885-1.102c0.543-0.052,1.042,0.336,1.103,0.885
					c0.044,0.4,4.705,40.151,31.77,54.33c0.489,0.256,0.678,0.86,0.422,1.35C1220.115,1538.293,1219.768,1538.488,1219.407,1538.488
					z"/>
			</g>
			<g>
				<path style="fill:#B2644B;" d="M1821.708,1430.247c-4.54,8.46-10.77,19.11-18.54,30.29c-16.51,23.74-43.63,54.86-79.03,68.28
					c-0.12,0.05-0.24,0.07-0.36,0.07c-0.4,0-0.78-0.25-0.93-0.65c-0.2-0.51,0.06-1.09,0.58-1.29
					c47.53-18.02,80.59-68.52,95.89-96.56C1820.108,1430.347,1820.908,1430.297,1821.708,1430.247z"/>
			</g>
			<g>
				<path style="fill:#B2644B;" d="M1902.678,1442.077c-2.93,7.85-7.33,18.09-13.59,29.21c-10.98,19.48-29.83,45.23-59.59,64.23
					c-4.53,2.89-9.31,5.63-14.35,8.16c-0.14,0.07-0.3,0.1-0.45,0.1c-0.36,0-0.72-0.2-0.89-0.55c-0.25-0.49-0.05-1.09,0.44-1.34
					c3.12-1.57,6.14-3.21,9.06-4.93h0.01c32.36-18.98,52.52-46.26,63.99-66.59c6.45-11.45,10.9-21.95,13.8-29.83
					C1901.648,1441.037,1902.168,1441.557,1902.678,1442.077z"/>
			</g>
			<path style="opacity:0.3;" d="M1919.668,1477.847c-0.25,25.38-40.07,45.61-90.17,57.67c-2.05,0.5-4.1,0.98-6.18,1.44h-0.01
				c-82.92,18.57-189.96,15.12-194.46-23.38c77.95-28.94,118.39-91.99,118.91-92.18c5.83,1.6,28.64,11.28,71.56,8.99
				c0.79-0.04,1.59-0.09,2.39-0.14c9.76-0.61,20.52-1.84,32.33-3.91c22.44-1.86,37.28,4.96,47.07,14.2c0.54,0.5,1.06,1.02,1.57,1.54
				C1917.508,1457.297,1919.668,1477.847,1919.668,1477.847z"/>
			<g>
				<path style="fill:#B2644B;" d="M1614.733,1518.688c-0.44,0-0.843-0.292-0.964-0.737c-0.145-0.533,0.169-1.083,0.702-1.228
					c49.003-13.335,86.241-44.402,108.851-68.116c24.508-25.706,37.567-48.519,37.696-48.747c0.272-0.482,0.881-0.649,1.363-0.377
					c0.48,0.272,0.648,0.883,0.376,1.363c-0.13,0.229-13.312,23.258-37.988,49.141c-22.785,23.898-60.326,55.211-109.773,68.666
					C1614.908,1518.677,1614.819,1518.688,1614.733,1518.688z"/>
			</g>
			<path style="opacity:0.3;" d="M842.323,1934.883c17.697,34.671,197.765-69.613,222.625-199.647L842.323,1934.883z"/>
			<g>
				<path style="fill:#B2644B;" d="M1663.28,1649.792c-0.545,0-0.991-0.438-1-0.984c-0.438-28.769-9.938-48.931-10.035-49.131
					c-0.238-0.498-0.028-1.096,0.47-1.334c0.497-0.241,1.095-0.029,1.334,0.469c0.098,0.204,9.786,20.733,10.231,49.965
					c0.008,0.553-0.433,1.007-0.985,1.016C1663.291,1649.792,1663.285,1649.792,1663.28,1649.792z"/>
			</g>
			<g>
				<path style="fill:#B2644B;" d="M1832.864,1661.974c-0.406,0-0.787-0.248-0.937-0.651c-20.664-55.486-76.162-71.046-76.72-71.196
					c-0.533-0.145-0.849-0.693-0.705-1.227c0.144-0.533,0.692-0.851,1.226-0.705c0.568,0.153,57.054,15.99,78.073,72.431
					c0.193,0.518-0.07,1.093-0.588,1.286C1833.098,1661.954,1832.981,1661.974,1832.864,1661.974z"/>
			</g>
			<path style="fill:#F8B79B;stroke:#000000;stroke-miterlimit:10;" d="M1221.793,1568.349c0,0,125.487-9.119,151.155-7.103"/>
			<path style="fill:#F19897;" d="M1327.113,1379.868c30.289-22.529,90.066,3.779,148.44,60.379c3.475,3.37,9.022,3.251,12.35-0.263
				c55.911-59.036,114.525-87.866,145.746-66.647c70.175,43.271-45.838,258.654-130.564,324.161
				c-9.272,7.169-22.165,7.445-31.734,0.678C1383.932,1636.356,1258.803,1426.024,1327.113,1379.868z"/>
			<g>
				<path style="fill:#B76E54;" d="M1144.309,1632.561c-0.441,0-0.846-0.294-0.965-0.741c-0.143-0.533,0.173-1.082,0.707-1.224
					c0.319-0.086,32.347-8.612,67.32-12.97c47.219-5.884,77.055-1.753,88.677,12.276c0.353,0.425,0.293,1.056-0.132,1.408
					c-0.426,0.351-1.056,0.293-1.408-0.133c-26.748-32.285-152.67,1.008-153.939,1.35
					C1144.482,1632.551,1144.394,1632.561,1144.309,1632.561z"/>
			</g>
			<path style="fill:#C57B60;" d="M964.416,1577.773c0,0,43.576-0.116,113.518-20.334c77.182-22.312,107.56-40.881,146.806-51.165
				c31.001-8.123,144.824-38.567,164.053,2.026s-42.796,84.064-114.378,107.765c-58.958,19.521-102.474-18.163-199.686,106.952
				c-112.398,144.66-232.406,211.866-232.406,211.866C761.868,1779.284,778.385,1652.95,964.416,1577.773z"/>
			<g>
				<path style="fill:#B76E54;" d="M842.324,1935.884c-0.357,0-0.703-0.191-0.883-0.529c-0.26-0.487-0.076-1.093,0.412-1.353
					c0.281-0.15,28.644-15.416,71.24-48.993c39.311-30.988,99.128-84.354,160.852-162.61
					c72.853-92.367,115.329-96.108,156.408-99.727c14.665-1.292,28.516-2.512,43.749-7.556
					c58.435-19.348,102.077-48.523,113.895-76.141c4.479-10.467,4.443-20.644-0.106-30.248
					c-7.874-16.623-33.202-22.968-75.278-18.847c-34.17,3.343-69.438,12.593-86.387,17.038l-1.23,0.323
					c-17.368,4.551-33.321,10.859-51.793,18.164c-23.182,9.167-52.032,20.576-94.988,32.994
					c-55.43,16.023-98.672,20.333-113.793,20.373c0,0-0.001,0-0.003,0c-0.551,0-0.998-0.446-1-0.997
					c-0.001-0.553,0.445-1.001,0.997-1.003c15.034-0.043,58.05-4.34,113.243-20.295c42.865-12.392,71.667-23.78,94.809-32.932
					c18.532-7.328,34.537-13.657,52.022-18.239l1.23-0.322c16.999-4.458,52.371-13.735,86.7-17.095
					c43.008-4.202,69.006,2.516,77.28,19.982c4.805,10.145,4.852,20.874,0.137,31.891c-14.388,33.622-68.893,61.951-115.104,77.252
					c-15.454,5.117-30.069,6.404-44.202,7.649c-40.655,3.581-82.695,7.284-155.013,98.973
					c-61.864,78.436-121.827,131.924-161.235,162.983c-42.722,33.671-71.202,48.995-71.485,49.146
					C842.644,1935.845,842.483,1935.884,842.324,1935.884z"/>
			</g>
			<path style="fill:#EAA9A0;" d="M1297.59,1505.734c-7.827,4.435,1.907,61.985,23.84,64.846
				c21.933,2.861,70.091-27.178,61.031-56.263C1373.402,1485.231,1311.894,1497.628,1297.59,1505.734z"/>
			<path style="fill:#B76E54;" d="M2036.297,1675.249c-39.668,7.678-138.718-3.906-209.098-37.176
				c-70.379-33.27-102.887-12.241-171.152-15.788c-29.955-1.557-101.651-1.232-100.928-51.115
				c0.723-49.883,106.609-70.797,147.817-63.568c41.208,7.229,86.763,7.53,123.624,7.952c115.356,1.322,89.66-50.309,89.66-50.309
				L2036.297,1675.249z"/>
			<g>
				<path style="fill:#B2644B;" d="M2006.443,1678.524c-47.416,0-121.878-12.226-179.671-39.547
					c-47.383-22.4-77.862-20.036-113.155-17.296c-17.445,1.354-35.486,2.753-57.622,1.604c-1.946-0.102-4.068-0.194-6.334-0.294
					c-16.038-0.704-40.274-1.768-60.062-8.511c-23.842-8.124-35.779-22.7-35.48-43.324c0.174-12.008,6.252-23.054,18.066-32.831
					c32.771-27.12,100.5-37.046,130.923-31.708c39.874,6.996,84.342,7.497,120.073,7.899l3.389,0.038
					c32.651,0.382,74.264-3.52,87.232-24.193c7.606-12.126,1.583-24.546,1.522-24.67c-0.246-0.494-0.045-1.095,0.45-1.341
					c0.495-0.248,1.094-0.045,1.341,0.45c0.272,0.547,6.578,13.558-1.618,26.623c-10.807,17.228-40.746,25.649-88.949,25.131
					l-3.389-0.038c-35.804-0.403-80.362-0.905-120.396-7.929c-30.057-5.271-96.958,4.512-129.302,31.278
					c-11.342,9.387-17.177,19.924-17.342,31.319c-0.662,45.668,60.676,48.36,93.629,49.808c2.273,0.1,4.4,0.193,6.351,0.294
					c22.009,1.144,39.981-0.25,57.363-1.599c35.578-2.76,66.302-5.144,114.165,17.481c72.018,34.046,169.961,44.552,208.48,37.099
					c0.541-0.107,1.066,0.249,1.172,0.791c0.105,0.543-0.25,1.067-0.792,1.172
					C2028.668,1677.744,2018.416,1678.524,2006.443,1678.524z"/>
			</g>
			<path style="fill:#EAA9A0;" d="M1638.403,1534.937c-1.232-4.634-75.25-7.963-74.055,35.833s72.065,37.028,74.055,31.852
				C1640.394,1597.446,1646.764,1566.391,1638.403,1534.937z"/>
			<g>
				<g>
					<path style="fill:#B76E54;" d="M1213.264,1596.489c-0.227,0-0.456-0.077-0.643-0.234
						c-24.208-20.356-20.097-61.223-20.052-61.633c0.059-0.55,0.555-0.942,1.102-0.887c0.549,0.059,0.946,0.553,0.887,1.101
						c-0.043,0.399-4.035,40.223,19.351,59.887c0.423,0.356,0.477,0.986,0.122,1.409
						C1213.832,1596.368,1213.549,1596.489,1213.264,1596.489z"/>
				</g>
				<g>
					<path style="fill:#B76E54;" d="M1231.799,1589.584c-0.227,0-0.456-0.077-0.643-0.234
						c-24.208-20.355-20.097-61.223-20.052-61.633c0.059-0.55,0.556-0.941,1.102-0.887c0.549,0.06,0.946,0.553,0.887,1.102
						c-0.043,0.399-4.035,40.223,19.351,59.887c0.423,0.355,0.477,0.986,0.122,1.409
						C1232.367,1589.463,1232.085,1589.584,1231.799,1589.584z"/>
				</g>
				<g>
					<path style="fill:#B76E54;" d="M1253.289,1582.809c-0.227,0-0.456-0.077-0.643-0.234
						c-24.207-20.356-20.096-61.223-20.052-61.633c0.059-0.55,0.55-0.954,1.102-0.887c0.549,0.059,0.946,0.553,0.887,1.101
						c-0.043,0.4-4.035,40.223,19.351,59.887c0.423,0.355,0.477,0.986,0.122,1.409
						C1253.857,1582.688,1253.574,1582.809,1253.289,1582.809z"/>
				</g>
			</g>
			<g>
				<path style="fill:#B76E54;" d="M990.161,1550.335c-0.298,0-0.594-0.133-0.791-0.388c-0.338-0.437-0.259-1.065,0.178-1.402
					c27.243-21.112,43.769-55.29,43.933-55.633c0.238-0.499,0.835-0.71,1.333-0.472c0.498,0.238,0.709,0.835,0.471,1.333
					c-0.166,0.348-16.887,34.943-44.513,56.352C990.591,1550.266,990.376,1550.335,990.161,1550.335z"/>
			</g>
			<g>
				<g>
					<path style="fill:#B2644B;" d="M1740.217,1531.328c0.218,0.065,0.414,0.205,0.548,0.41
						c17.322,26.463,1.619,64.416,1.458,64.796c-0.215,0.51-0.803,0.743-1.31,0.532c-0.509-0.215-0.747-0.802-0.532-1.31
						c0.156-0.37,15.445-37.358-1.289-62.922c-0.302-0.462-0.173-1.082,0.289-1.385
						C1739.639,1531.28,1739.944,1531.245,1740.217,1531.328z"/>
				</g>
				<g>
					<path style="fill:#B2644B;" d="M1720.479,1532.604c0.217,0.065,0.414,0.205,0.548,0.41
						c17.322,26.463,1.619,64.416,1.458,64.796c-0.215,0.51-0.803,0.741-1.31,0.532c-0.508-0.215-0.747-0.802-0.532-1.31
						c0.156-0.37,15.445-37.358-1.289-62.922c-0.303-0.462-0.173-1.082,0.289-1.385
						C1719.9,1532.556,1720.206,1532.522,1720.479,1532.604z"/>
				</g>
				<g>
					<path style="fill:#B2644B;" d="M1697.949,1532.904c0.217,0.065,0.414,0.205,0.548,0.41
						c17.321,26.463,1.618,64.416,1.457,64.796c-0.214,0.51-0.802,0.755-1.31,0.532c-0.508-0.215-0.747-0.802-0.532-1.31
						c0.156-0.37,15.445-37.358-1.289-62.922c-0.303-0.462-0.173-1.082,0.289-1.385
						C1697.37,1532.856,1697.676,1532.822,1697.949,1532.904z"/>
				</g>
			</g>
			<path style="fill:#EAA9A0;" d="M1232.211,1325.486c0,0-14.508,11.939-6.667,17.213c7.84,5.274,65.497,29.483,72.482,20.434
				C1293.543,1349.437,1242.194,1324.652,1232.211,1325.486z"/>
			<g>
				<path style="fill:#B76E54;" d="M1108.48,1400.08c-0.58,0.05-1.01,0.14-1.27,0.27c-0.18,0.09-0.39,0.22-0.63,0.4
					c-5.72-11.56-11.55-26.16-14.1-41.41c-0.04-0.22,0-0.45,0.1-0.64c0.15-0.26,0.4-0.46,0.72-0.51c0.55-0.09,1.06,0.28,1.15,0.82
					C1096.98,1374.14,1102.79,1388.64,1108.48,1400.08z"/>
			</g>
		</g>
		<g>
			<path style="fill:#FCF5F4;" d="M1437.221,1224.096c4.107-4.197,13.932-1.606,24.276,5.674c0.616,0.433,1.465,0.281,1.891-0.34
				c7.158-10.429,15.466-16.283,20.779-13.78c11.834,4.946-0.764,40.86-12.193,52.983c-1.251,1.327-3.225,1.682-4.86,0.875
				C1452.179,1262.13,1427.844,1232.847,1437.221,1224.096z"/>
			<path style="fill:#FCF5F4;" d="M1515.361,1067.875c9.165-3.886,22.844,6.58,34.276,24.721c0.681,1.08,2.109,1.395,3.181,0.702
				c18.006-11.644,34.822-15.38,41.501-7.998c15.287,15.461-27.862,63.425-53.655,74.933c-2.823,1.259-6.144,0.527-8.174-1.804
				C1513.941,1137.142,1494.981,1075.447,1515.361,1067.875z"/>
			<path style="fill:#FCF5F4;" d="M1302.93,1052.98c6.625-7.43,23.465-3.815,41.554,7.7c1.077,0.686,2.503,0.36,3.176-0.725
				c11.302-18.223,24.908-28.788,34.101-24.968c20.428,7.444,1.918,69.249-16.482,90.676c-2.014,2.345-5.329,3.102-8.161,1.863
				C1331.249,1116.208,1287.74,1068.535,1302.93,1052.98z"/>
		</g>
		<g>
			<path style="fill:#FCF5F4;" d="M2595.521,1406.57c-8.72,70.66-34.12,148.9-68.36,211.14c-1.38,2.52-2.79,5.01-4.2,7.48
				c-19.84,34.55-41.32,61.86-63.85,81.14c-25.01,21.4-50.61,32.24-76.13,32.24c-0.32,0-0.63,0-0.95-0.01
				c-37.89-0.4-71.84-16.05-100.39-45.88c-2.49-2.58-4.92-5.27-7.31-8.06c-12.63-14.76-24.11-32.46-34.3-53.01
				c-0.16-0.32-0.28-0.65-0.37-0.98c3.27-0.84,6.54-1.67,9.81-2.5c7.63,15.24,17.33,31.41,29.42,46.23
				c2.32,2.85,4.73,5.65,7.24,8.38c23.45,25.63,54.86,45.39,96.01,45.82c44.83,0.51,91.77-38.01,132.14-108.35
				c0.84-1.47,1.68-2.94,2.5-4.43h0.01c34.48-61.62,60.1-139.87,68.8-210.43c3.01-24.37,3.78-46.21,2.44-65.04
				c-3.07-43.34-17.3-70.78-41.09-76.47c-15.73-3.76-30.39,1.86-43.56,16.72c-11.52,12.98-21.59,32.7-29.18,57.08
				c-3.38,0.11-6.81,0.22-10.28,0.34c-0.02-0.53,0.05-1.08,0.21-1.62c18.49-60.8,49.52-90.77,85.14-82.24
				c29.78,7.13,46.75,39.53,49.14,91.39C2599.241,1363.58,2598.301,1384.02,2595.521,1406.57z"/>
		</g>
		<g>
			<path style="fill:#FCF5F4;" d="M2355.301,1397.58c-3.28,67.16-18.68,144.09-42.18,214.89c-8.09,24.36-17.14,48-26.99,70.27
				c-1.48,3.35-2.97,6.66-4.49,9.94c-0.42,0.91-0.84,1.82-1.26,2.72c-22.63,48.44-47.83,87.65-74.92,116.54
				c-30.24,32.27-61.81,50.41-93.83,53.94c-4.51,0.5-9,0.75-13.45,0.75c-37.13,0-72.48-17.21-105.25-51.3
				c-31.6-32.86-59.83-80.24-83.97-140.87c3.59-1,6.73-2.2,9.41-3.41c30.34,76.01,94.18,195.69,192.16,184.89
				c56.98-6.28,114.09-64.8,160.79-164.77c1.01-2.17,2.02-4.35,3.01-6.55c1.54-3.38,3.06-6.81,4.56-10.26
				c8.21-18.91,15.83-38.77,22.78-59.19c24.33-71.53,40.31-149.9,43.64-218.08c0.94-19.31,0.89-37.23-0.11-53.66
				c-4.26-69.53-25.63-112.33-61.09-119.79c-11.37-2.39-21.97-0.1-31.5,6.82c-23.16,16.81-40.17,60.65-46.73,120.36
				c-3.39,0.17-6.74,0.33-10.05,0.49c-0.02-0.26-0.01-0.52,0.02-0.78c6.9-63.84,24.97-109.36,50.89-128.17
				c11.91-8.64,25.18-11.51,39.43-8.51c13.4,2.82,25.16,9.81,34.95,20.75c9.08,10.15,16.52,23.81,22.11,40.59
				c6.24,18.72,10.23,41.63,11.87,67.71C2356.181,1359.87,2356.251,1378.19,2355.301,1397.58z"/>
		</g>
		<g>
			<path style="fill:#FCF5F4;" d="M2039.051,1334.8c-0.01,3.18-0.05,6.38-0.13,9.59c-1.3,64.06-12.77,134.71-33.35,205.02
				c-4.54,15.5-9.5,30.89-14.86,46.11c-9.12,25.9-19.39,51.29-30.69,75.89c-0.29,0.64-0.58,1.28-0.88,1.93
				c-0.14,0.29-0.27,0.58-0.41,0.88c-0.15,0.33-0.31,0.67-0.46,1c-15.95,34.3-33.88,67.02-53.43,97.32
				c-48.46,75.11-106.13,135.45-171.43,179.35c-73.81,49.62-156.37,77.33-245.4,82.35c-9.57,0.54-19.09,0.8-28.54,0.8
				c-78.17,0.01-152-18.43-219.86-54.95c-31.1-16.73-60.76-37.12-88.82-61.04c-2.91-2.48-5.79-4.99-8.65-7.53
				c-29.26-26-56.72-55.89-82.19-89.51c-0.35-0.45-0.69-0.91-1.04-1.37c-5.94-8.01-11.69-16.05-17.26-24.11
				c-4.2-6.07-8.29-12.16-12.27-18.27c-0.15-0.23-0.3-0.45-0.45-0.68c-0.23-0.36-0.46-0.71-0.69-1.07c-1.15-1.76-2.29-3.53-3.4-5.3
				c-30.21-47.32-54.37-95.95-73.31-147.38c-4.25-11.55-8.26-23.26-12.04-35.21c-16.03-50.71-27.88-105.53-36.73-169.4
				c-0.17-1.17-0.33-2.35-0.49-3.53c-0.01-0.07-0.02-0.14-0.03-0.2c-6.11-64.6-2.07-122.07,11.68-166.21
				c14.69-47.16,40.2-77.58,73.76-87.95c27.46-8.48,53.5,0.92,77.4,27.94c21.24,24.02,40.32,61.52,56.69,111.47
				c0.24,0.72,0.3,1.46,0.21,2.16c-3.57-0.44-7.06-0.86-10.45-1.23c-15.76-47.55-33.92-83.13-53.94-105.78
				c-21.06-23.81-43.59-32.22-66.95-25c-30.28,9.35-53.51,37.49-67.18,81.37c-13.08,42-17.08,96.71-11.61,158.41
				c0.11,1.25,0.22,2.51,0.34,3.77c8.76,64.27,20.51,119.26,36.47,170c3.83,12.2,7.91,24.15,12.25,35.93
				c18.51,50.25,42.07,97.8,71.47,144.07c0.91,1.45,1.84,2.9,2.78,4.34c0.22,0.36,0.45,0.72,0.69,1.08
				c0.14,0.22,0.29,0.45,0.44,0.67c3.47,5.38,7.04,10.74,10.69,16.08c6.06,8.91,12.36,17.78,18.89,26.62
				c0.35,0.47,0.7,0.95,1.05,1.42c21.26,28.2,46.98,57.71,77.46,85.41c2.86,2.6,5.76,5.18,8.7,7.73v0.01
				c79.26,69.04,189.11,124.64,334.37,116.45c208.52-11.75,337.5-146.32,408.98-257.13c18.77-29.1,36.03-60.45,51.46-93.32
				c0.16-0.33,0.32-0.67,0.47-1c0.14-0.29,0.27-0.58,0.4-0.87c0.38-0.8,0.76-1.61,1.13-2.41c12.77-27.62,24.25-56.27,34.23-85.52
				c4.22-12.37,8.18-24.85,11.85-37.4c20.6-70.37,31.97-141.03,33-204.86c0.05-2.34,0.07-4.67,0.08-6.99
				c0.25-55.12-7.51-101.85-22.44-135.13c-15.36-34.26-37.09-52.54-64.56-54.33c-48-3.14-76.42,41.15-89.38,139.4
				c-0.03,0.26-0.09,0.52-0.17,0.76c-3.33-1-6.55-1.94-9.65-2.81c6.15-46.17,15.6-80.25,28.91-104.17
				c17.02-30.6,40.88-45.12,70.94-43.16c31.02,2.02,56.28,22.85,73.04,60.22C2031.241,1230.1,2039.311,1278.26,2039.051,1334.8z"/>
		</g>
		<g>
			<path style="fill:#FCF5F4;" d="M1154.321,1439.49c-3.02,1.15-6.17,2.39-9.42,3.7c-0.13-0.33-0.23-0.68-0.29-1.04
				c-2.06-12.75-4.32-25.36-6.69-37.48c-0.11-0.54-0.12-1.08-0.04-1.6c3.21,0.41,6.61,0.85,10.16,1.29
				C1150.261,1415.76,1152.371,1427.56,1154.321,1439.49z"/>
		</g>
		<g>
			<path style="fill:#FCF5F4;" d="M1172.201,1727.9c-2.2,65.81-8.7,126.58-19.12,179.89v0.01c-0.75,3.79-1.51,7.53-2.29,11.25
				c-5.87,27.92-12.85,53.66-20.89,76.86c-13.24,38.23-29.32,69.34-47.78,92.47c-20.09,25.17-43.18,41.12-68.65,47.41
				c-10.15,2.51-20.37,3.76-30.63,3.76c-40.83,0.01-82.27-19.77-122.76-58.45c-2.75-2.61-5.49-5.32-8.21-8.11v-0.01
				c-3.66-3.72-7.3-7.6-10.93-11.63c-12.07-13.41-24.04-28.52-35.85-45.3c-50.43-71.61-95.08-169.68-124.59-272.81
				c-2.92-10.19-5.69-20.43-8.3-30.7c-17.71-69.61-26.18-134.53-23.87-182.81c2.6-54.29,18.59-86.8,46.23-94.03
				c20.55-5.37,40.47-0.21,59.2,15.35c17.14,14.23,33.34,37.33,48.21,68.72c-2.08,2.84-4.13,5.76-6.17,8.77
				c-0.71-0.48-1.31-1.16-1.7-2c-14.56-31.33-30.28-54.14-46.72-67.8c-16.12-13.38-33.04-17.87-50.29-13.37
				c-16.03,4.2-35.77,22.32-38.77,84.84c-2.27,47.31,6.1,111.19,23.57,179.87c1.88,7.37,3.83,14.73,5.87,22.07
				c29.16,105.12,74.34,205.48,125.51,278.15c10.87,15.43,23.24,31.33,36.91,46.29c1.47,1.62,2.97,3.23,4.48,4.82
				c2.71,2.87,5.46,5.69,8.27,8.46c41.03,40.57,92.01,70.09,148.14,56.22c23.28-5.76,44.55-20.54,63.24-43.95
				c17.74-22.24,33.27-52.35,46.15-89.51c8.43-24.31,15.67-51.5,21.68-81.11c0.77-3.78,1.51-7.6,2.24-11.46
				c9.55-50.73,15.57-108.15,17.74-170.19c3.2-1.37,6.44-2.71,9.71-4.04C1172.091,1726.47,1172.221,1727.17,1172.201,1727.9z"/>
		</g>
		<g>
			<path style="fill:#FCF5F4;" d="M867.11,2051.32c-1.3,6.29-2.69,12.47-4.18,18.55c-0.91,3.79-1.86,7.53-2.85,11.23
				c-10.75,40.28-25.4,75.26-42.97,102.36c-22.49,34.67-49.46,55.9-78.01,61.41c-5.51,1.06-11.18,1.59-17,1.59
				c-38.74,0-84.05-23.41-132.27-68.6c-0.58-0.54-1.16-1.09-1.74-1.63c-83.67-79.19-160.1-208.44-183.23-299.35
				c-6.47-25.42-8.77-47.84-5.89-65.33c2.99-18.19,11.34-30.52,24.8-36.64c21.64-9.84,43.26-7.87,64.29,5.86
				c16.72,10.92,33.11,29.44,48.73,55.04c0.06,0.1,0.12,0.21,0.18,0.32c-3.36,0.95-6.71,1.86-10.04,2.74
				c-32.11-51.68-65.42-70.15-99.01-54.86c-10.25,4.66-16.66,14.47-19.08,29.16c-2.47,15.05-0.64,34.99,5.06,58.29
				c7.84,32.1,23.02,70.57,44.35,111.41c37.71,72.19,88.16,140.6,138.42,187.7c0.57,0.53,1.15,1.07,1.73,1.61
				c36.93,34.24,90.41,72.19,138.81,62.87c25.81-4.98,50.54-24.7,71.5-57.03c17.81-27.46,32.56-63.43,43.16-105.03v-0.01
				c0.96-3.81,1.9-7.67,2.79-11.57c0.62-2.67,1.23-5.37,1.81-8.09c3.7-1.93,7.09-3.72,10.15-5.36
				C867.161,2048.95,867.36,2050.13,867.11,2051.32z"/>
		</g>
		<path style="fill:#FCF5F4;stroke:#F9DDDD;stroke-width:10;stroke-linecap:round;stroke-linejoin:round;stroke-miterlimit:10;" d="
			M585.051,1963.366"/>
		<path style="fill:#FCF5F4;" d="M345.706,1795.729c16.445,48.129,43.605,84.007,65.584,89.301
			c14.139-17.635,13.666-62.631-2.778-110.76c-16.444-48.129-43.605-84.007-65.578-89.303
			C328.789,1702.603,329.261,1747.599,345.706,1795.729z"/>
		<path style="fill:#FCF5F4;" d="M912.306,1143.022c-13.87,48.933-11.957,93.891,3.103,110.754
			c21.662-6.454,46.882-43.72,60.753-92.654s11.957-93.891-3.097-110.752C951.397,1056.822,926.176,1094.089,912.306,1143.022z"/>
		<path style="fill:#FCF5F4;" d="M1962.561,1122.629c11.84,49.464,35.502,87.739,56.886,95.079
			c15.736-16.226,19.502-61.066,7.661-110.53s-35.502-87.739-56.88-95.08C1954.487,1028.324,1950.721,1073.165,1962.561,1122.629z"
			/>
		<path style="fill:#FCF5F4;" d="M2560.458,1250.507c0.783,50.855,15.541,93.365,34.812,105.186
			c18.892-12.409,32.334-55.353,31.551-106.208c-0.783-50.855-15.541-93.365-34.806-105.186
			C2573.117,1156.708,2559.676,1199.652,2560.458,1250.507z"/>
		<path style="fill:#FCF5F4;" d="M2509.93,1385.768c16.31,48.175,43.37,84.128,65.335,89.484
			c14.188-17.596,13.841-62.593-2.469-110.768c-16.31-48.175-43.37-84.128-65.329-89.486
			C2493.273,1292.596,2493.62,1337.593,2509.93,1385.768z"/>
		<path style="fill:#FCF5F4;" d="M2477.752,1502.708c10.969,49.664,33.953,88.35,55.204,96.065
			c16.019-15.947,20.573-60.714,9.605-110.378c-10.969-49.664-33.953-88.35-55.198-96.066
			C2471.338,1408.276,2466.784,1453.043,2477.752,1502.708z"/>
		<path style="fill:#FCF5F4;" d="M2621.341,1342.828c-29.054,41.746-41.891,84.874-33.146,105.723
			c22.583,0.955,58.567-26.063,87.622-67.809c29.054-41.746,41.891-84.875,33.151-105.719
			C2686.38,1274.065,2650.396,1301.083,2621.341,1342.828z"/>
		<path style="fill:#FCF5F4;" d="M2611.123,1466.436c-39.921,31.515-64.724,69.061-62.407,91.55
			c21.333,7.469,63.611-7.941,103.532-39.455c39.921-31.515,64.723-69.061,62.411-91.545
			C2693.322,1419.511,2651.044,1434.921,2611.123,1466.436z"/>
		<path style="fill:#FCF5F4;" d="M2584.681,1575.04c-45.757,22.207-78.044,53.551-80.611,76.013
			c19.232,11.876,63.833,5.904,109.59-16.303c45.757-22.207,78.043-53.551,80.613-76.007
			C2675.039,1546.861,2630.438,1552.833,2584.681,1575.04z"/>
		<path style="fill:#FCF5F4;" d="M2048.502,1191.292c-21.035,46.307-25.87,91.046-13.502,109.971
			c22.384-3.14,52.896-36.214,73.931-82.522c21.035-46.307,25.87-91.046,13.508-109.969
			C2100.049,1111.91,2069.537,1144.984,2048.502,1191.292z"/>
		<path style="fill:#FCF5F4;" d="M2064.454,1331.332c-30.021,41.056-43.861,83.873-35.606,104.92
			c22.554,1.482,59.16-24.688,89.181-65.744c30.021-41.056,43.861-83.873,35.611-104.917
			C2131.081,1264.106,2094.475,1290.276,2064.454,1331.332z"/>
		<path style="fill:#FCF5F4;" d="M1950.485,1282.608c26.17,43.612,60.248,72.998,82.849,73.567
			c10.127-20.208,0.232-64.104-25.938-107.717c-26.169-43.612-60.248-72.998-82.844-73.57
			C1914.42,1195.099,1924.316,1238.996,1950.485,1282.608z"/>
		<path style="fill:#FCF5F4;" d="M1938.801,1401.685c26.17,43.612,60.248,72.998,82.849,73.567
			c10.127-20.208,0.232-64.104-25.938-107.717c-26.17-43.612-60.248-72.998-82.844-73.57
			C1902.736,1314.176,1912.631,1358.073,1938.801,1401.685z"/>
		<path style="fill:#FCF5F4;" d="M834.034,1286.212c17.184,47.87,44.894,83.325,66.953,88.28
			c13.865-17.851,12.699-62.834-4.485-110.705c-17.184-47.87-44.894-83.325-66.947-88.282
			C815.683,1193.358,816.849,1238.342,834.034,1286.212z"/>
		<path style="fill:#FCF5F4;" d="M825.651,1456.784c35.463,36.458,75.367,57.257,97.497,52.634
			c5.229-21.99-14.458-62.453-49.921-98.912c-35.463-36.458-75.367-57.257-97.492-52.638
			C770.5,1379.862,790.188,1420.326,825.651,1456.784z"/>
		<path style="fill:#FCF5F4;" d="M345.426,1942.83c39.084,32.547,80.945,49.055,102.47,42.141
			c2.899-22.416-20.915-60.597-59.999-93.144c-39.084-32.547-80.945-49.055-102.466-42.146
			C282.528,1872.102,306.341,1910.283,345.426,1942.83z"/>
		<path style="fill:#FCF5F4;" d="M394.516,2059.942c45.816,22.086,90.432,27.939,109.635,16.007
			c-2.629-22.45-34.999-53.708-80.814-75.794c-45.816-22.086-90.432-27.939-109.632-16.012
			C316.33,2006.598,348.7,2037.856,394.516,2059.942z"/>
		<path style="fill:#FCF5F4;" d="M462.438,2162.843c49.418,12.031,94.273,8.437,110.56-7.242
			c-7.26-21.406-45.443-45.214-94.861-57.245c-49.418-12.03-94.273-8.437-110.559,7.237
			C374.837,2127.003,413.021,2150.812,462.438,2162.843z"/>
		<path style="fill:#FCF5F4;" d="M437.256,1920.508c4.876,50.627,23.009,91.81,43.17,102.041
			c17.832-13.89,27.771-57.777,22.896-108.404c-4.876-50.627-23.009-91.81-43.164-102.042
			C442.32,1825.995,432.38,1869.881,437.256,1920.508z"/>
		<path style="fill:#FCF5F4;" d="M511.826,2003.919c-5.675,50.544,3.569,94.582,21.185,108.753
			c20.314-9.912,39.096-50.803,44.771-101.347c5.676-50.543-3.569-94.582-21.179-108.752
			C536.283,1912.484,517.501,1953.376,511.826,2003.919z"/>
		
			<ellipse transform="matrix(0.3552 -0.9348 0.9348 0.3552 -942.4733 2693.7705)" style="fill:#FCF5F4;" cx="1481.373" cy="2030.047" rx="30.217" ry="30.217"/>
		
			<ellipse transform="matrix(0.5949 -0.8038 0.8038 0.5949 -881.0969 2167.1196)" style="fill:#FCF5F4;" cx="1709.376" cy="1957.666" rx="30.217" ry="30.217"/>
		
			<ellipse transform="matrix(0.2532 -0.9674 0.9674 0.2532 106.8643 3605.5764)" style="fill:#FCF5F4;" cx="2388.857" cy="1733.57" rx="30.217" ry="30.217"/>
		
			<ellipse transform="matrix(0.2532 -0.9674 0.9674 0.2532 -983.3027 2682.8989)" style="fill:#FCF5F4;" cx="1246.131" cy="1978.36" rx="30.217" ry="30.217"/>
		
			<ellipse transform="matrix(0.7071 -0.7071 0.7071 0.7071 -1367.326 1181.9319)" style="fill:#FCF5F4;" cx="743.055" cy="2241.475" rx="30.217" ry="30.217"/>
		<circle style="fill:#FCF5F4;" cx="1599.016" cy="2008.579" r="17.003"/>
		
			<ellipse transform="matrix(0.5499 -0.8352 0.8352 0.5499 -605.9914 2598.679)" style="fill:#FCF5F4;" cx="2108.247" cy="1861.622" rx="17.003" ry="17.003"/>
		<path style="fill:#FCF5F4;" d="M1350.894,2020.237c-0.863,9.351,6.017,17.631,15.368,18.494
			c9.351,0.863,17.631-6.017,18.494-15.368s-6.017-17.631-15.368-18.494C1360.038,2004.005,1351.758,2010.886,1350.894,2020.237z"/>
		<circle style="fill:#FCF5F4;" cx="1018.38" cy="2130.599" r="17.003"/>
		<path style="fill:#FCF5F4;" d="M923.736,1311.066c-22.067,45.825-27.903,90.443-15.963,109.641
			c22.449-2.638,53.694-35.02,75.761-80.845c22.067-45.825,27.903-90.443,15.968-109.639
			C977.048,1232.859,945.803,1265.241,923.736,1311.066z"/>
		<path style="fill:#FCF5F4;" d="M949.363,1426.144c-22.067,45.825-27.903,90.443-15.963,109.641
			c22.449-2.638,53.694-35.02,75.761-80.845c22.067-45.825,27.903-90.443,15.968-109.639
			C1002.676,1347.937,971.431,1380.319,949.363,1426.144z"/>
	</g>
</g>
</svg>
